<svg width="60" height="60" viewBox="0 0 60 60" fill="none" xmlns="http://www.w3.org/2000/svg">
<g clip-path="url(#clip0_1666_3860)">
<path d="M30.0004 27.0516C34.9226 27.0516 38.9129 23.0613 38.9129 18.1391C38.9129 13.2168 34.9226 9.22656 30.0004 9.22656C25.0782 9.22656 21.0879 13.2168 21.0879 18.1391C21.0879 23.0613 25.0782 27.0516 30.0004 27.0516Z" fill="#109BDC"/>
<path d="M41.3257 29.8125L39.2256 29.1875L30.0006 38.425L20.7755 29.1875L18.6755 29.8125C13.2379 31.4499 9.58789 36.3499 9.58789 42.025V52.5H50.4129V42.025C50.4131 36.3499 46.7632 31.4499 41.3257 29.8125Z" fill="#109BDC"/>
<path d="M40.5383 7.5C39.0276 7.5 37.5795 7.90727 36.3086 8.63471C39.382 10.6818 41.4131 14.1756 41.4131 18.137C41.4131 20.4852 40.699 22.6689 39.4785 24.4852C39.8291 24.5294 40.1821 24.5625 40.5383 24.5625C45.2508 24.5625 49.0758 20.7375 49.0758 16.025C49.0758 11.3248 45.2508 7.5 40.5383 7.5Z" fill="#109BDC"/>
<path d="M51.3247 27.0609L49.2873 26.4609L46.2969 29.4514C50.3766 32.2339 52.9124 36.862 52.9124 42.0235V48.7485H59.9998V38.7235C59.9997 33.311 56.5123 28.6235 51.3247 27.0609Z" fill="#109BDC"/>
<path d="M23.6928 8.63471C22.422 7.90727 20.974 7.5 19.4633 7.5C14.7508 7.5 10.9258 11.3248 10.9258 16.025C10.9258 20.7375 14.7508 24.5625 19.4633 24.5625C19.8194 24.5625 20.1724 24.5293 20.5229 24.4852C19.3024 22.669 18.5883 20.4852 18.5883 18.137C18.5883 14.1756 20.6194 10.6818 23.6928 8.63471Z" fill="#109BDC"/>
<path d="M10.7126 26.4609L8.68754 27.0609H8.67497C3.48753 28.6235 0 33.311 0 38.7235V48.7485H7.08742V42.0235C7.08742 36.8608 9.62445 32.2319 13.7022 29.4506L10.7126 26.4609Z" fill="#109BDC"/>
</g>
<defs>
<clipPath id="clip0_1666_3860">
<rect width="60" height="60" fill="white"/>
</clipPath>
</defs>
</svg>
