<svg width="335" height="368" viewBox="0 0 335 368" fill="none" xmlns="http://www.w3.org/2000/svg">
<rect x="20" width="60" height="60" fill="#D9D9D9"/>
<path d="M20.3735 81.964H23.7895V83H19.0995V73.242H20.3735V81.964ZM32.1425 78.87C32.1425 79.1127 32.1285 79.3693 32.1005 79.64H25.9685C26.0151 80.396 26.2718 80.9887 26.7385 81.418C27.2145 81.838 27.7885 82.048 28.4605 82.048C29.0111 82.048 29.4685 81.922 29.8325 81.67C30.2058 81.4087 30.4671 81.0633 30.6165 80.634H31.9885C31.7831 81.3713 31.3725 81.9733 30.7565 82.44C30.1405 82.8973 29.3751 83.126 28.4605 83.126C27.7325 83.126 27.0791 82.9627 26.5005 82.636C25.9311 82.3093 25.4831 81.8473 25.1565 81.25C24.8298 80.6433 24.6665 79.9433 24.6665 79.15C24.6665 78.3567 24.8251 77.6613 25.1425 77.064C25.4598 76.4667 25.9031 76.0093 26.4725 75.692C27.0511 75.3653 27.7138 75.202 28.4605 75.202C29.1885 75.202 29.8325 75.3607 30.3925 75.678C30.9525 75.9953 31.3818 76.434 31.6805 76.994C31.9885 77.5447 32.1425 78.17 32.1425 78.87ZM30.8265 78.604C30.8265 78.1187 30.7191 77.7033 30.5045 77.358C30.2898 77.0033 29.9958 76.7373 29.6225 76.56C29.2585 76.3733 28.8525 76.28 28.4045 76.28C27.7605 76.28 27.2098 76.4853 26.7525 76.896C26.3045 77.3067 26.0478 77.876 25.9825 78.604H30.8265ZM33.3481 79.136C33.3481 78.352 33.5068 77.666 33.8241 77.078C34.1414 76.4807 34.5754 76.0187 35.1261 75.692C35.6861 75.3653 36.3068 75.202 36.9881 75.202C37.6601 75.202 38.2434 75.3467 38.7381 75.636C39.2328 75.9253 39.6014 76.2893 39.8441 76.728V75.328H41.1321V83H39.8441V81.572C39.5921 82.02 39.2141 82.3933 38.7101 82.692C38.2154 82.9813 37.6368 83.126 36.9741 83.126C36.2928 83.126 35.6768 82.958 35.1261 82.622C34.5754 82.286 34.1414 81.8147 33.8241 81.208C33.5068 80.6013 33.3481 79.9107 33.3481 79.136ZM39.8441 79.15C39.8441 78.5713 39.7274 78.0673 39.4941 77.638C39.2608 77.2087 38.9434 76.882 38.5421 76.658C38.1501 76.4247 37.7161 76.308 37.2401 76.308C36.7641 76.308 36.3301 76.42 35.9381 76.644C35.5461 76.868 35.2334 77.1947 35.0001 77.624C34.7668 78.0533 34.6501 78.5573 34.6501 79.136C34.6501 79.724 34.7668 80.2373 35.0001 80.676C35.2334 81.1053 35.5461 81.4367 35.9381 81.67C36.3301 81.894 36.7641 82.006 37.2401 82.006C37.7161 82.006 38.1501 81.894 38.5421 81.67C38.9434 81.4367 39.2608 81.1053 39.4941 80.676C39.7274 80.2373 39.8441 79.7287 39.8441 79.15ZM44.559 76.574C44.783 76.1353 45.1004 75.7947 45.511 75.552C45.931 75.3093 46.4397 75.188 47.037 75.188V76.504H46.701C45.273 76.504 44.559 77.2787 44.559 78.828V83H43.285V75.328H44.559V76.574ZM52.2457 75.188C53.179 75.188 53.935 75.4727 54.5137 76.042C55.0924 76.602 55.3817 77.414 55.3817 78.478V83H54.1217V78.66C54.1217 77.8947 53.9304 77.3113 53.5477 76.91C53.165 76.4993 52.6424 76.294 51.9797 76.294C51.3077 76.294 50.771 76.504 50.3697 76.924C49.9777 77.344 49.7817 77.9553 49.7817 78.758V83H48.5077V75.328H49.7817V76.42C50.0337 76.028 50.3744 75.7247 50.8037 75.51C51.2424 75.2953 51.723 75.188 52.2457 75.188ZM58.1208 74.082C57.8781 74.082 57.6728 73.998 57.5048 73.83C57.3368 73.662 57.2528 73.4567 57.2528 73.214C57.2528 72.9713 57.3368 72.766 57.5048 72.598C57.6728 72.43 57.8781 72.346 58.1208 72.346C58.3541 72.346 58.5501 72.43 58.7088 72.598C58.8768 72.766 58.9608 72.9713 58.9608 73.214C58.9608 73.4567 58.8768 73.662 58.7088 73.83C58.5501 73.998 58.3541 74.082 58.1208 74.082ZM58.7368 75.328V83H57.4628V75.328H58.7368ZM64.6461 75.188C65.5794 75.188 66.3354 75.4727 66.9141 76.042C67.4927 76.602 67.7821 77.414 67.7821 78.478V83H66.5221V78.66C66.5221 77.8947 66.3307 77.3113 65.9481 76.91C65.5654 76.4993 65.0427 76.294 64.3801 76.294C63.7081 76.294 63.1714 76.504 62.7701 76.924C62.3781 77.344 62.1821 77.9553 62.1821 78.758V83H60.9081V75.328H62.1821V76.42C62.4341 76.028 62.7747 75.7247 63.2041 75.51C63.6427 75.2953 64.1234 75.188 64.6461 75.188ZM73.0272 75.202C73.6898 75.202 74.2685 75.3467 74.7632 75.636C75.2672 75.9253 75.6405 76.2893 75.8832 76.728V75.328H77.1712V83.168C77.1712 83.868 77.0218 84.4887 76.7232 85.03C76.4245 85.5807 75.9952 86.01 75.4352 86.318C74.8845 86.626 74.2405 86.78 73.5032 86.78C72.4952 86.78 71.6552 86.542 70.9832 86.066C70.3112 85.59 69.9145 84.9413 69.7932 84.12H71.0532C71.1932 84.5867 71.4825 84.96 71.9212 85.24C72.3598 85.5293 72.8872 85.674 73.5032 85.674C74.2032 85.674 74.7725 85.4547 75.2112 85.016C75.6592 84.5773 75.8832 83.9613 75.8832 83.168V81.558C75.6312 82.006 75.2578 82.3793 74.7632 82.678C74.2685 82.9767 73.6898 83.126 73.0272 83.126C72.3458 83.126 71.7252 82.958 71.1652 82.622C70.6145 82.286 70.1805 81.8147 69.8632 81.208C69.5458 80.6013 69.3872 79.9107 69.3872 79.136C69.3872 78.352 69.5458 77.666 69.8632 77.078C70.1805 76.4807 70.6145 76.0187 71.1652 75.692C71.7252 75.3653 72.3458 75.202 73.0272 75.202ZM75.8832 79.15C75.8832 78.5713 75.7665 78.0673 75.5332 77.638C75.2998 77.2087 74.9825 76.882 74.5812 76.658C74.1892 76.4247 73.7552 76.308 73.2792 76.308C72.8032 76.308 72.3692 76.42 71.9772 76.644C71.5852 76.868 71.2725 77.1947 71.0392 77.624C70.8058 78.0533 70.6892 78.5573 70.6892 79.136C70.6892 79.724 70.8058 80.2373 71.0392 80.676C71.2725 81.1053 71.5852 81.4367 71.9772 81.67C72.3692 81.894 72.8032 82.006 73.2792 82.006C73.7552 82.006 74.1892 81.894 74.5812 81.67C74.9825 81.4367 75.2998 81.1053 75.5332 80.676C75.7665 80.2373 75.8832 79.7287 75.8832 79.15ZM15.1303 93.242V103H13.8563V93.242H15.1303ZM21.0396 95.188C21.973 95.188 22.729 95.4727 23.3076 96.042C23.8863 96.602 24.1756 97.414 24.1756 98.478V103H22.9156V98.66C22.9156 97.8947 22.7243 97.3113 22.3416 96.91C21.959 96.4993 21.4363 96.294 20.7736 96.294C20.1016 96.294 19.565 96.504 19.1636 96.924C18.7716 97.344 18.5756 97.9553 18.5756 98.758V103H17.3016V95.328H18.5756V96.42C18.8276 96.028 19.1683 95.7247 19.5976 95.51C20.0363 95.2953 20.517 95.188 21.0396 95.188ZM27.8107 96.378V100.9C27.8107 101.273 27.89 101.539 28.0487 101.698C28.2074 101.847 28.4827 101.922 28.8747 101.922H29.8127V103H28.6647C27.9554 103 27.4234 102.837 27.0687 102.51C26.714 102.183 26.5367 101.647 26.5367 100.9V96.378H25.5427V95.328H26.5367V93.396H27.8107V95.328H29.8127V96.378H27.8107ZM38.3563 98.87C38.3563 99.1127 38.3423 99.3693 38.3143 99.64H32.1823C32.229 100.396 32.4857 100.989 32.9523 101.418C33.4283 101.838 34.0023 102.048 34.6743 102.048C35.225 102.048 35.6823 101.922 36.0463 101.67C36.4197 101.409 36.681 101.063 36.8303 100.634H38.2023C37.997 101.371 37.5863 101.973 36.9703 102.44C36.3543 102.897 35.589 103.126 34.6743 103.126C33.9463 103.126 33.293 102.963 32.7143 102.636C32.145 102.309 31.697 101.847 31.3703 101.25C31.0437 100.643 30.8803 99.9433 30.8803 99.15C30.8803 98.3567 31.039 97.6613 31.3563 97.064C31.6737 96.4667 32.117 96.0093 32.6863 95.692C33.265 95.3653 33.9277 95.202 34.6743 95.202C35.4023 95.202 36.0463 95.3607 36.6063 95.678C37.1663 95.9953 37.5957 96.434 37.8943 96.994C38.2023 97.5447 38.3563 98.17 38.3563 98.87ZM37.0403 98.604C37.0403 98.1187 36.933 97.7033 36.7183 97.358C36.5037 97.0033 36.2097 96.7373 35.8363 96.56C35.4723 96.3733 35.0663 96.28 34.6183 96.28C33.9743 96.28 33.4237 96.4853 32.9663 96.896C32.5183 97.3067 32.2617 97.876 32.1963 98.604H37.0403ZM41.312 96.574C41.536 96.1353 41.8533 95.7947 42.264 95.552C42.684 95.3093 43.1926 95.188 43.79 95.188V96.504H43.454C42.026 96.504 41.312 97.2787 41.312 98.828V103H40.038V95.328H41.312V96.574ZM44.7846 99.136C44.7846 98.352 44.9433 97.666 45.2606 97.078C45.578 96.4807 46.012 96.0187 46.5626 95.692C47.1226 95.3653 47.7433 95.202 48.4246 95.202C49.0966 95.202 49.68 95.3467 50.1746 95.636C50.6693 95.9253 51.038 96.2893 51.2806 96.728V95.328H52.5686V103H51.2806V101.572C51.0286 102.02 50.6506 102.393 50.1466 102.692C49.652 102.981 49.0733 103.126 48.4106 103.126C47.7293 103.126 47.1133 102.958 46.5626 102.622C46.012 102.286 45.578 101.815 45.2606 101.208C44.9433 100.601 44.7846 99.9107 44.7846 99.136ZM51.2806 99.15C51.2806 98.5713 51.164 98.0673 50.9306 97.638C50.6973 97.2087 50.38 96.882 49.9786 96.658C49.5866 96.4247 49.1526 96.308 48.6766 96.308C48.2006 96.308 47.7666 96.42 47.3746 96.644C46.9826 96.868 46.67 97.1947 46.4366 97.624C46.2033 98.0533 46.0866 98.5573 46.0866 99.136C46.0866 99.724 46.2033 100.237 46.4366 100.676C46.67 101.105 46.9826 101.437 47.3746 101.67C47.7666 101.894 48.2006 102.006 48.6766 102.006C49.1526 102.006 49.5866 101.894 49.9786 101.67C50.38 101.437 50.6973 101.105 50.9306 100.676C51.164 100.237 51.2806 99.7287 51.2806 99.15ZM54.2456 99.15C54.2456 98.3567 54.4042 97.666 54.7216 97.078C55.0389 96.4807 55.4776 96.0187 56.0376 95.692C56.6069 95.3653 57.2556 95.202 57.9836 95.202C58.9262 95.202 59.7009 95.4307 60.3076 95.888C60.9236 96.3453 61.3296 96.98 61.5256 97.792H60.1536C60.0229 97.3253 59.7662 96.9567 59.3836 96.686C59.0102 96.4153 58.5436 96.28 57.9836 96.28C57.2556 96.28 56.6676 96.532 56.2196 97.036C55.7716 97.5307 55.5476 98.2353 55.5476 99.15C55.5476 100.074 55.7716 100.788 56.2196 101.292C56.6676 101.796 57.2556 102.048 57.9836 102.048C58.5436 102.048 59.0102 101.917 59.3836 101.656C59.7569 101.395 60.0136 101.021 60.1536 100.536H61.5256C61.3202 101.32 60.9096 101.95 60.2936 102.426C59.6776 102.893 58.9076 103.126 57.9836 103.126C57.2556 103.126 56.6069 102.963 56.0376 102.636C55.4776 102.309 55.0389 101.847 54.7216 101.25C54.4042 100.653 54.2456 99.9527 54.2456 99.15ZM64.7795 96.378V100.9C64.7795 101.273 64.8588 101.539 65.0175 101.698C65.1761 101.847 65.4515 101.922 65.8435 101.922H66.7815V103H65.6335C64.9241 103 64.3921 102.837 64.0375 102.51C63.6828 102.183 63.5055 101.647 63.5055 100.9V96.378H62.5115V95.328H63.5055V93.396H64.7795V95.328H66.7815V96.378H64.7795ZM68.9831 94.082C68.7404 94.082 68.5351 93.998 68.3671 93.83C68.1991 93.662 68.1151 93.4567 68.1151 93.214C68.1151 92.9713 68.1991 92.766 68.3671 92.598C68.5351 92.43 68.7404 92.346 68.9831 92.346C69.2164 92.346 69.4124 92.43 69.5711 92.598C69.7391 92.766 69.8231 92.9713 69.8231 93.214C69.8231 93.4567 69.7391 93.662 69.5711 93.83C69.4124 93.998 69.2164 94.082 68.9831 94.082ZM69.5991 95.328V103H68.3251V95.328H69.5991ZM74.6264 101.824L77.0064 95.328H78.3644L75.3544 103H73.8704L70.8604 95.328H72.2324L74.6264 101.824ZM86.618 98.87C86.618 99.1127 86.604 99.3693 86.576 99.64H80.444C80.4907 100.396 80.7474 100.989 81.214 101.418C81.69 101.838 82.264 102.048 82.936 102.048C83.4867 102.048 83.944 101.922 84.308 101.67C84.6814 101.409 84.9427 101.063 85.092 100.634H86.464C86.2587 101.371 85.848 101.973 85.232 102.44C84.616 102.897 83.8507 103.126 82.936 103.126C82.208 103.126 81.5547 102.963 80.976 102.636C80.4067 102.309 79.9587 101.847 79.632 101.25C79.3054 100.643 79.142 99.9433 79.142 99.15C79.142 98.3567 79.3007 97.6613 79.618 97.064C79.9354 96.4667 80.3787 96.0093 80.948 95.692C81.5267 95.3653 82.1894 95.202 82.936 95.202C83.664 95.202 84.308 95.3607 84.868 95.678C85.428 95.9953 85.8574 96.434 86.156 96.994C86.464 97.5447 86.618 98.17 86.618 98.87ZM85.302 98.604C85.302 98.1187 85.1947 97.7033 84.98 97.358C84.7654 97.0033 84.4714 96.7373 84.098 96.56C83.734 96.3733 83.328 96.28 82.88 96.28C82.236 96.28 81.6854 96.4853 81.228 96.896C80.78 97.3067 80.5234 97.876 80.458 98.604H85.302Z" fill="black"/>
<rect x="132" width="60" height="60" fill="#D9D9D9"/>
<path d="M112.898 78.114C112.898 77.162 113.113 76.308 113.542 75.552C113.971 74.7867 114.555 74.1893 115.292 73.76C116.039 73.3307 116.865 73.116 117.77 73.116C118.834 73.116 119.763 73.3727 120.556 73.886C121.349 74.3993 121.928 75.1273 122.292 76.07H120.766C120.495 75.482 120.103 75.0293 119.59 74.712C119.086 74.3947 118.479 74.236 117.77 74.236C117.089 74.236 116.477 74.3947 115.936 74.712C115.395 75.0293 114.97 75.482 114.662 76.07C114.354 76.6487 114.2 77.33 114.2 78.114C114.2 78.8887 114.354 79.57 114.662 80.158C114.97 80.7367 115.395 81.1847 115.936 81.502C116.477 81.8193 117.089 81.978 117.77 81.978C118.479 81.978 119.086 81.824 119.59 81.516C120.103 81.1987 120.495 80.746 120.766 80.158H122.292C121.928 81.0913 121.349 81.8147 120.556 82.328C119.763 82.832 118.834 83.084 117.77 83.084C116.865 83.084 116.039 82.874 115.292 82.454C114.555 82.0247 113.971 81.432 113.542 80.676C113.113 79.92 112.898 79.066 112.898 78.114ZM127.534 83.126C126.816 83.126 126.162 82.9627 125.574 82.636C124.996 82.3093 124.538 81.8473 124.202 81.25C123.876 80.6433 123.712 79.9433 123.712 79.15C123.712 78.366 123.88 77.6753 124.216 77.078C124.562 76.4713 125.028 76.0093 125.616 75.692C126.204 75.3653 126.862 75.202 127.59 75.202C128.318 75.202 128.976 75.3653 129.564 75.692C130.152 76.0093 130.614 76.4667 130.95 77.064C131.296 77.6613 131.468 78.3567 131.468 79.15C131.468 79.9433 131.291 80.6433 130.936 81.25C130.591 81.8473 130.12 82.3093 129.522 82.636C128.925 82.9627 128.262 83.126 127.534 83.126ZM127.534 82.006C127.992 82.006 128.421 81.8987 128.822 81.684C129.224 81.4693 129.546 81.1473 129.788 80.718C130.04 80.2887 130.166 79.766 130.166 79.15C130.166 78.534 130.045 78.0113 129.802 77.582C129.56 77.1527 129.242 76.8353 128.85 76.63C128.458 76.4153 128.034 76.308 127.576 76.308C127.11 76.308 126.68 76.4153 126.288 76.63C125.906 76.8353 125.598 77.1527 125.364 77.582C125.131 78.0113 125.014 78.534 125.014 79.15C125.014 79.7753 125.126 80.3027 125.35 80.732C125.584 81.1613 125.892 81.4833 126.274 81.698C126.657 81.9033 127.077 82.006 127.534 82.006ZM134.417 72.64V83H133.143V72.64H134.417ZM137.863 72.64V83H136.589V72.64H137.863ZM139.558 79.136C139.558 78.352 139.717 77.666 140.034 77.078C140.351 76.4807 140.785 76.0187 141.336 75.692C141.896 75.3653 142.517 75.202 143.198 75.202C143.87 75.202 144.453 75.3467 144.948 75.636C145.443 75.9253 145.811 76.2893 146.054 76.728V75.328H147.342V83H146.054V81.572C145.802 82.02 145.424 82.3933 144.92 82.692C144.425 82.9813 143.847 83.126 143.184 83.126C142.503 83.126 141.887 82.958 141.336 82.622C140.785 82.286 140.351 81.8147 140.034 81.208C139.717 80.6013 139.558 79.9107 139.558 79.136ZM146.054 79.15C146.054 78.5713 145.937 78.0673 145.704 77.638C145.471 77.2087 145.153 76.882 144.752 76.658C144.36 76.4247 143.926 76.308 143.45 76.308C142.974 76.308 142.54 76.42 142.148 76.644C141.756 76.868 141.443 77.1947 141.21 77.624C140.977 78.0533 140.86 78.5573 140.86 79.136C140.86 79.724 140.977 80.2373 141.21 80.676C141.443 81.1053 141.756 81.4367 142.148 81.67C142.54 81.894 142.974 82.006 143.45 82.006C143.926 82.006 144.36 81.894 144.752 81.67C145.153 81.4367 145.471 81.1053 145.704 80.676C145.937 80.2373 146.054 79.7287 146.054 79.15ZM150.769 76.756C151.03 76.2987 151.413 75.9253 151.917 75.636C152.421 75.3467 152.995 75.202 153.639 75.202C154.33 75.202 154.95 75.3653 155.501 75.692C156.052 76.0187 156.486 76.4807 156.803 77.078C157.12 77.666 157.279 78.352 157.279 79.136C157.279 79.9107 157.12 80.6013 156.803 81.208C156.486 81.8147 156.047 82.286 155.487 82.622C154.936 82.958 154.32 83.126 153.639 83.126C152.976 83.126 152.393 82.9813 151.889 82.692C151.394 82.4027 151.021 82.034 150.769 81.586V83H149.495V72.64H150.769V76.756ZM155.977 79.136C155.977 78.5573 155.86 78.0533 155.627 77.624C155.394 77.1947 155.076 76.868 154.675 76.644C154.283 76.42 153.849 76.308 153.373 76.308C152.906 76.308 152.472 76.4247 152.071 76.658C151.679 76.882 151.362 77.2133 151.119 77.652C150.886 78.0813 150.769 78.5807 150.769 79.15C150.769 79.7287 150.886 80.2373 151.119 80.676C151.362 81.1053 151.679 81.4367 152.071 81.67C152.472 81.894 152.906 82.006 153.373 82.006C153.849 82.006 154.283 81.894 154.675 81.67C155.076 81.4367 155.394 81.1053 155.627 80.676C155.86 80.2373 155.977 79.724 155.977 79.136ZM162.302 83.126C161.583 83.126 160.93 82.9627 160.342 82.636C159.763 82.3093 159.306 81.8473 158.97 81.25C158.643 80.6433 158.48 79.9433 158.48 79.15C158.48 78.366 158.648 77.6753 158.984 77.078C159.329 76.4713 159.796 76.0093 160.384 75.692C160.972 75.3653 161.63 75.202 162.358 75.202C163.086 75.202 163.744 75.3653 164.332 75.692C164.92 76.0093 165.382 76.4667 165.718 77.064C166.063 77.6613 166.236 78.3567 166.236 79.15C166.236 79.9433 166.059 80.6433 165.704 81.25C165.359 81.8473 164.887 82.3093 164.29 82.636C163.693 82.9627 163.03 83.126 162.302 83.126ZM162.302 82.006C162.759 82.006 163.189 81.8987 163.59 81.684C163.991 81.4693 164.313 81.1473 164.556 80.718C164.808 80.2887 164.934 79.766 164.934 79.15C164.934 78.534 164.813 78.0113 164.57 77.582C164.327 77.1527 164.01 76.8353 163.618 76.63C163.226 76.4153 162.801 76.308 162.344 76.308C161.877 76.308 161.448 76.4153 161.056 76.63C160.673 76.8353 160.365 77.1527 160.132 77.582C159.899 78.0113 159.782 78.534 159.782 79.15C159.782 79.7753 159.894 80.3027 160.118 80.732C160.351 81.1613 160.659 81.4833 161.042 81.698C161.425 81.9033 161.845 82.006 162.302 82.006ZM169.185 76.574C169.409 76.1353 169.726 75.7947 170.137 75.552C170.557 75.3093 171.066 75.188 171.663 75.188V76.504H171.327C169.899 76.504 169.185 77.2787 169.185 78.828V83H167.911V75.328H169.185V76.574ZM172.658 79.136C172.658 78.352 172.816 77.666 173.134 77.078C173.451 76.4807 173.885 76.0187 174.436 75.692C174.996 75.3653 175.616 75.202 176.298 75.202C176.97 75.202 177.553 75.3467 178.048 75.636C178.542 75.9253 178.911 76.2893 179.154 76.728V75.328H180.442V83H179.154V81.572C178.902 82.02 178.524 82.3933 178.02 82.692C177.525 82.9813 176.946 83.126 176.284 83.126C175.602 83.126 174.986 82.958 174.436 82.622C173.885 82.286 173.451 81.8147 173.134 81.208C172.816 80.6013 172.658 79.9107 172.658 79.136ZM179.154 79.15C179.154 78.5713 179.037 78.0673 178.804 77.638C178.57 77.2087 178.253 76.882 177.852 76.658C177.46 76.4247 177.026 76.308 176.55 76.308C176.074 76.308 175.64 76.42 175.248 76.644C174.856 76.868 174.543 77.1947 174.31 77.624C174.076 78.0533 173.96 78.5573 173.96 79.136C173.96 79.724 174.076 80.2373 174.31 80.676C174.543 81.1053 174.856 81.4367 175.248 81.67C175.64 81.894 176.074 82.006 176.55 82.006C177.026 82.006 177.46 81.894 177.852 81.67C178.253 81.4367 178.57 81.1053 178.804 80.676C179.037 80.2373 179.154 79.7287 179.154 79.15ZM184.149 76.378V80.9C184.149 81.2733 184.228 81.5393 184.387 81.698C184.545 81.8473 184.821 81.922 185.213 81.922H186.151V83H185.003C184.293 83 183.761 82.8367 183.407 82.51C183.052 82.1833 182.875 81.6467 182.875 80.9V76.378H181.881V75.328H182.875V73.396H184.149V75.328H186.151V76.378H184.149ZM188.352 74.082C188.11 74.082 187.904 73.998 187.736 73.83C187.568 73.662 187.484 73.4567 187.484 73.214C187.484 72.9713 187.568 72.766 187.736 72.598C187.904 72.43 188.11 72.346 188.352 72.346C188.586 72.346 188.782 72.43 188.94 72.598C189.108 72.766 189.192 72.9713 189.192 73.214C189.192 73.4567 189.108 73.662 188.94 73.83C188.782 73.998 188.586 74.082 188.352 74.082ZM188.968 75.328V83H187.694V75.328H188.968ZM194.486 83.126C193.767 83.126 193.114 82.9627 192.526 82.636C191.947 82.3093 191.49 81.8473 191.154 81.25C190.827 80.6433 190.664 79.9433 190.664 79.15C190.664 78.366 190.832 77.6753 191.168 77.078C191.513 76.4713 191.98 76.0093 192.568 75.692C193.156 75.3653 193.814 75.202 194.542 75.202C195.27 75.202 195.928 75.3653 196.516 75.692C197.104 76.0093 197.566 76.4667 197.902 77.064C198.247 77.6613 198.42 78.3567 198.42 79.15C198.42 79.9433 198.242 80.6433 197.888 81.25C197.542 81.8473 197.071 82.3093 196.474 82.636C195.876 82.9627 195.214 83.126 194.486 83.126ZM194.486 82.006C194.943 82.006 195.372 81.8987 195.774 81.684C196.175 81.4693 196.497 81.1473 196.74 80.718C196.992 80.2887 197.118 79.766 197.118 79.15C197.118 78.534 196.996 78.0113 196.754 77.582C196.511 77.1527 196.194 76.8353 195.802 76.63C195.41 76.4153 194.985 76.308 194.528 76.308C194.061 76.308 193.632 76.4153 193.24 76.63C192.857 76.8353 192.549 77.1527 192.316 77.582C192.082 78.0113 191.966 78.534 191.966 79.15C191.966 79.7753 192.078 80.3027 192.302 80.732C192.535 81.1613 192.843 81.4833 193.226 81.698C193.608 81.9033 194.028 82.006 194.486 82.006ZM203.833 75.188C204.766 75.188 205.522 75.4727 206.101 76.042C206.679 76.602 206.969 77.414 206.969 78.478V83H205.709V78.66C205.709 77.8947 205.517 77.3113 205.135 76.91C204.752 76.4993 204.229 76.294 203.567 76.294C202.895 76.294 202.358 76.504 201.957 76.924C201.565 77.344 201.369 77.9553 201.369 78.758V83H200.095V75.328H201.369V76.42C201.621 76.028 201.961 75.7247 202.391 75.51C202.829 75.2953 203.31 75.188 203.833 75.188ZM149.014 93.242V94.278H146.354V103H145.08V94.278H142.406V93.242H149.014ZM157.582 98.87C157.582 99.1127 157.568 99.3693 157.54 99.64H151.408C151.455 100.396 151.711 100.989 152.178 101.418C152.654 101.838 153.228 102.048 153.9 102.048C154.451 102.048 154.908 101.922 155.272 101.67C155.645 101.409 155.907 101.063 156.056 100.634H157.428C157.223 101.371 156.812 101.973 156.196 102.44C155.58 102.897 154.815 103.126 153.9 103.126C153.172 103.126 152.519 102.963 151.94 102.636C151.371 102.309 150.923 101.847 150.596 101.25C150.269 100.643 150.106 99.9433 150.106 99.15C150.106 98.3567 150.265 97.6613 150.582 97.064C150.899 96.4667 151.343 96.0093 151.912 95.692C152.491 95.3653 153.153 95.202 153.9 95.202C154.628 95.202 155.272 95.3607 155.832 95.678C156.392 95.9953 156.821 96.434 157.12 96.994C157.428 97.5447 157.582 98.17 157.582 98.87ZM156.266 98.604C156.266 98.1187 156.159 97.7033 155.944 97.358C155.729 97.0033 155.435 96.7373 155.062 96.56C154.698 96.3733 154.292 96.28 153.844 96.28C153.2 96.28 152.649 96.4853 152.192 96.896C151.744 97.3067 151.487 97.876 151.422 98.604H156.266ZM158.788 99.136C158.788 98.352 158.946 97.666 159.264 97.078C159.581 96.4807 160.015 96.0187 160.566 95.692C161.126 95.3653 161.746 95.202 162.428 95.202C163.1 95.202 163.683 95.3467 164.178 95.636C164.672 95.9253 165.041 96.2893 165.284 96.728V95.328H166.572V103H165.284V101.572C165.032 102.02 164.654 102.393 164.15 102.692C163.655 102.981 163.076 103.126 162.414 103.126C161.732 103.126 161.116 102.958 160.566 102.622C160.015 102.286 159.581 101.815 159.264 101.208C158.946 100.601 158.788 99.9107 158.788 99.136ZM165.284 99.15C165.284 98.5713 165.167 98.0673 164.934 97.638C164.7 97.2087 164.383 96.882 163.982 96.658C163.59 96.4247 163.156 96.308 162.68 96.308C162.204 96.308 161.77 96.42 161.378 96.644C160.986 96.868 160.673 97.1947 160.44 97.624C160.206 98.0533 160.09 98.5573 160.09 99.136C160.09 99.724 160.206 100.237 160.44 100.676C160.673 101.105 160.986 101.437 161.378 101.67C161.77 101.894 162.204 102.006 162.68 102.006C163.156 102.006 163.59 101.894 163.982 101.67C164.383 101.437 164.7 101.105 164.934 100.676C165.167 100.237 165.284 99.7287 165.284 99.15ZM177.95 95.188C178.548 95.188 179.08 95.314 179.546 95.566C180.013 95.8087 180.382 96.1773 180.652 96.672C180.923 97.1667 181.058 97.7687 181.058 98.478V103H179.798V98.66C179.798 97.8947 179.607 97.3113 179.224 96.91C178.851 96.4993 178.342 96.294 177.698 96.294C177.036 96.294 176.508 96.5087 176.116 96.938C175.724 97.358 175.528 97.9693 175.528 98.772V103H174.268V98.66C174.268 97.8947 174.077 97.3113 173.694 96.91C173.321 96.4993 172.812 96.294 172.168 96.294C171.506 96.294 170.978 96.5087 170.586 96.938C170.194 97.358 169.998 97.9693 169.998 98.772V103H168.724V95.328H169.998V96.434C170.25 96.0327 170.586 95.7247 171.006 95.51C171.436 95.2953 171.907 95.188 172.42 95.188C173.064 95.188 173.634 95.3327 174.128 95.622C174.623 95.9113 174.992 96.336 175.234 96.896C175.449 96.3547 175.804 95.9347 176.298 95.636C176.793 95.3373 177.344 95.188 177.95 95.188Z" fill="black"/>
<rect x="244" width="60" height="60" fill="#D9D9D9"/>
<path d="M254.672 73.312V83H253.398V75.776L250.178 83H249.282L246.048 75.762V83H244.774V73.312H246.146L249.73 81.32L253.314 73.312H254.672ZM256.357 79.136C256.357 78.352 256.516 77.666 256.833 77.078C257.15 76.4807 257.584 76.0187 258.135 75.692C258.695 75.3653 259.316 75.202 259.997 75.202C260.669 75.202 261.252 75.3467 261.747 75.636C262.242 75.9253 262.61 76.2893 262.853 76.728V75.328H264.141V83H262.853V81.572C262.601 82.02 262.223 82.3933 261.719 82.692C261.224 82.9813 260.646 83.126 259.983 83.126C259.302 83.126 258.686 82.958 258.135 82.622C257.584 82.286 257.15 81.8147 256.833 81.208C256.516 80.6013 256.357 79.9107 256.357 79.136ZM262.853 79.15C262.853 78.5713 262.736 78.0673 262.503 77.638C262.27 77.2087 261.952 76.882 261.551 76.658C261.159 76.4247 260.725 76.308 260.249 76.308C259.773 76.308 259.339 76.42 258.947 76.644C258.555 76.868 258.242 77.1947 258.009 77.624C257.776 78.0533 257.659 78.5573 257.659 79.136C257.659 79.724 257.776 80.2373 258.009 80.676C258.242 81.1053 258.555 81.4367 258.947 81.67C259.339 81.894 259.773 82.006 260.249 82.006C260.725 82.006 261.159 81.894 261.551 81.67C261.952 81.4367 262.27 81.1053 262.503 80.676C262.736 80.2373 262.853 79.7287 262.853 79.15ZM267.848 76.378V80.9C267.848 81.2733 267.927 81.5393 268.086 81.698C268.244 81.8473 268.52 81.922 268.912 81.922H269.85V83H268.702C267.992 83 267.46 82.8367 267.106 82.51C266.751 82.1833 266.574 81.6467 266.574 80.9V76.378H265.58V75.328H266.574V73.396H267.848V75.328H269.85V76.378H267.848ZM278.393 78.87C278.393 79.1127 278.379 79.3693 278.351 79.64H272.219C272.266 80.396 272.523 80.9887 272.989 81.418C273.465 81.838 274.039 82.048 274.711 82.048C275.262 82.048 275.719 81.922 276.083 81.67C276.457 81.4087 276.718 81.0633 276.867 80.634H278.239C278.034 81.3713 277.623 81.9733 277.007 82.44C276.391 82.8973 275.626 83.126 274.711 83.126C273.983 83.126 273.33 82.9627 272.751 82.636C272.182 82.3093 271.734 81.8473 271.407 81.25C271.081 80.6433 270.917 79.9433 270.917 79.15C270.917 78.3567 271.076 77.6613 271.393 77.064C271.711 76.4667 272.154 76.0093 272.723 75.692C273.302 75.3653 273.965 75.202 274.711 75.202C275.439 75.202 276.083 75.3607 276.643 75.678C277.203 75.9953 277.633 76.434 277.931 76.994C278.239 77.5447 278.393 78.17 278.393 78.87ZM277.077 78.604C277.077 78.1187 276.97 77.7033 276.755 77.358C276.541 77.0033 276.247 76.7373 275.873 76.56C275.509 76.3733 275.103 76.28 274.655 76.28C274.011 76.28 273.461 76.4853 273.003 76.896C272.555 77.3067 272.299 77.876 272.233 78.604H277.077ZM281.349 76.574C281.573 76.1353 281.89 75.7947 282.301 75.552C282.721 75.3093 283.23 75.188 283.827 75.188V76.504H283.491C282.063 76.504 281.349 77.2787 281.349 78.828V83H280.075V75.328H281.349V76.574ZM285.956 74.082C285.713 74.082 285.508 73.998 285.34 73.83C285.172 73.662 285.088 73.4567 285.088 73.214C285.088 72.9713 285.172 72.766 285.34 72.598C285.508 72.43 285.713 72.346 285.956 72.346C286.189 72.346 286.385 72.43 286.544 72.598C286.712 72.766 286.796 72.9713 286.796 73.214C286.796 73.4567 286.712 73.662 286.544 73.83C286.385 73.998 286.189 74.082 285.956 74.082ZM286.572 75.328V83H285.298V75.328H286.572ZM288.267 79.136C288.267 78.352 288.426 77.666 288.743 77.078C289.06 76.4807 289.494 76.0187 290.045 75.692C290.605 75.3653 291.226 75.202 291.907 75.202C292.579 75.202 293.162 75.3467 293.657 75.636C294.152 75.9253 294.52 76.2893 294.763 76.728V75.328H296.051V83H294.763V81.572C294.511 82.02 294.133 82.3933 293.629 82.692C293.134 82.9813 292.556 83.126 291.893 83.126C291.212 83.126 290.596 82.958 290.045 82.622C289.494 82.286 289.06 81.8147 288.743 81.208C288.426 80.6013 288.267 79.9107 288.267 79.136ZM294.763 79.15C294.763 78.5713 294.646 78.0673 294.413 77.638C294.18 77.2087 293.862 76.882 293.461 76.658C293.069 76.4247 292.635 76.308 292.159 76.308C291.683 76.308 291.249 76.42 290.857 76.644C290.465 76.868 290.152 77.1947 289.919 77.624C289.686 78.0533 289.569 78.5573 289.569 79.136C289.569 79.724 289.686 80.2373 289.919 80.676C290.152 81.1053 290.465 81.4367 290.857 81.67C291.249 81.894 291.683 82.006 292.159 82.006C292.635 82.006 293.069 81.894 293.461 81.67C293.862 81.4367 294.18 81.1053 294.413 80.676C294.646 80.2373 294.763 79.7287 294.763 79.15ZM299.478 72.64V83H298.204V72.64H299.478ZM255.475 94.278V97.54H259.031V98.59H255.475V101.95H259.451V103H254.201V93.228H259.451V94.278H255.475ZM262.653 96.756C262.914 96.2987 263.297 95.9253 263.801 95.636C264.305 95.3467 264.879 95.202 265.523 95.202C266.213 95.202 266.834 95.3653 267.385 95.692C267.935 96.0187 268.369 96.4807 268.687 97.078C269.004 97.666 269.163 98.352 269.163 99.136C269.163 99.9107 269.004 100.601 268.687 101.208C268.369 101.815 267.931 102.286 267.371 102.622C266.82 102.958 266.204 103.126 265.523 103.126C264.86 103.126 264.277 102.981 263.773 102.692C263.278 102.403 262.905 102.034 262.653 101.586V103H261.379V92.64H262.653V96.756ZM267.861 99.136C267.861 98.5573 267.744 98.0533 267.511 97.624C267.277 97.1947 266.96 96.868 266.559 96.644C266.167 96.42 265.733 96.308 265.257 96.308C264.79 96.308 264.356 96.4247 263.955 96.658C263.563 96.882 263.245 97.2133 263.003 97.652C262.769 98.0813 262.653 98.5807 262.653 99.15C262.653 99.7287 262.769 100.237 263.003 100.676C263.245 101.105 263.563 101.437 263.955 101.67C264.356 101.894 264.79 102.006 265.257 102.006C265.733 102.006 266.167 101.894 266.559 101.67C266.96 101.437 267.277 101.105 267.511 100.676C267.744 100.237 267.861 99.724 267.861 99.136ZM274.186 103.126C273.467 103.126 272.814 102.963 272.226 102.636C271.647 102.309 271.19 101.847 270.854 101.25C270.527 100.643 270.364 99.9433 270.364 99.15C270.364 98.366 270.532 97.6753 270.868 97.078C271.213 96.4713 271.68 96.0093 272.268 95.692C272.856 95.3653 273.514 95.202 274.242 95.202C274.97 95.202 275.628 95.3653 276.216 95.692C276.804 96.0093 277.266 96.4667 277.602 97.064C277.947 97.6613 278.12 98.3567 278.12 99.15C278.12 99.9433 277.942 100.643 277.588 101.25C277.242 101.847 276.771 102.309 276.174 102.636C275.576 102.963 274.914 103.126 274.186 103.126ZM274.186 102.006C274.643 102.006 275.072 101.899 275.474 101.684C275.875 101.469 276.197 101.147 276.44 100.718C276.692 100.289 276.818 99.766 276.818 99.15C276.818 98.534 276.696 98.0113 276.454 97.582C276.211 97.1527 275.894 96.8353 275.502 96.63C275.11 96.4153 274.685 96.308 274.228 96.308C273.761 96.308 273.332 96.4153 272.94 96.63C272.557 96.8353 272.249 97.1527 272.016 97.582C271.782 98.0113 271.666 98.534 271.666 99.15C271.666 99.7753 271.778 100.303 272.002 100.732C272.235 101.161 272.543 101.483 272.926 101.698C273.308 101.903 273.728 102.006 274.186 102.006ZM283.141 103.126C282.422 103.126 281.769 102.963 281.181 102.636C280.602 102.309 280.145 101.847 279.809 101.25C279.482 100.643 279.319 99.9433 279.319 99.15C279.319 98.366 279.487 97.6753 279.823 97.078C280.168 96.4713 280.635 96.0093 281.223 95.692C281.811 95.3653 282.469 95.202 283.197 95.202C283.925 95.202 284.583 95.3653 285.171 95.692C285.759 96.0093 286.221 96.4667 286.557 97.064C286.902 97.6613 287.075 98.3567 287.075 99.15C287.075 99.9433 286.897 100.643 286.543 101.25C286.197 101.847 285.726 102.309 285.129 102.636C284.531 102.963 283.869 103.126 283.141 103.126ZM283.141 102.006C283.598 102.006 284.027 101.899 284.429 101.684C284.83 101.469 285.152 101.147 285.395 100.718C285.647 100.289 285.773 99.766 285.773 99.15C285.773 98.534 285.651 98.0113 285.409 97.582C285.166 97.1527 284.849 96.8353 284.457 96.63C284.065 96.4153 283.64 96.308 283.183 96.308C282.716 96.308 282.287 96.4153 281.895 96.63C281.512 96.8353 281.204 97.1527 280.971 97.582C280.737 98.0113 280.621 98.534 280.621 99.15C280.621 99.7753 280.733 100.303 280.957 100.732C281.19 101.161 281.498 101.483 281.881 101.698C282.263 101.903 282.683 102.006 283.141 102.006ZM293.034 103L290.024 99.612V103H288.75V92.64H290.024V98.73L292.978 95.328H294.756L291.144 99.15L294.77 103H293.034Z" fill="black"/>
<rect x="20" y="120" width="60" height="60" fill="#D9D9D9"/>
<path d="M22.2397 201.964H25.6557V203H20.9657V193.242H22.2397V201.964ZM34.0087 198.87C34.0087 199.113 33.9947 199.369 33.9667 199.64H27.8347C27.8813 200.396 28.138 200.989 28.6047 201.418C29.0807 201.838 29.6547 202.048 30.3267 202.048C30.8773 202.048 31.3347 201.922 31.6987 201.67C32.072 201.409 32.3333 201.063 32.4827 200.634H33.8547C33.6493 201.371 33.2387 201.973 32.6227 202.44C32.0067 202.897 31.2413 203.126 30.3267 203.126C29.5987 203.126 28.9453 202.963 28.3667 202.636C27.7973 202.309 27.3493 201.847 27.0227 201.25C26.696 200.643 26.5327 199.943 26.5327 199.15C26.5327 198.357 26.6913 197.661 27.0087 197.064C27.326 196.467 27.7693 196.009 28.3387 195.692C28.9173 195.365 29.58 195.202 30.3267 195.202C31.0547 195.202 31.6987 195.361 32.2587 195.678C32.8187 195.995 33.248 196.434 33.5467 196.994C33.8547 197.545 34.0087 198.17 34.0087 198.87ZM32.6927 198.604C32.6927 198.119 32.5853 197.703 32.3707 197.358C32.156 197.003 31.862 196.737 31.4887 196.56C31.1247 196.373 30.7187 196.28 30.2707 196.28C29.6267 196.28 29.076 196.485 28.6187 196.896C28.1707 197.307 27.914 197.876 27.8487 198.604H32.6927ZM35.2143 199.136C35.2143 198.352 35.373 197.666 35.6903 197.078C36.0076 196.481 36.4416 196.019 36.9923 195.692C37.5523 195.365 38.173 195.202 38.8543 195.202C39.5263 195.202 40.1096 195.347 40.6043 195.636C41.099 195.925 41.4676 196.289 41.7103 196.728V195.328H42.9983V203H41.7103V201.572C41.4583 202.02 41.0803 202.393 40.5763 202.692C40.0816 202.981 39.503 203.126 38.8403 203.126C38.159 203.126 37.543 202.958 36.9923 202.622C36.4416 202.286 36.0076 201.815 35.6903 201.208C35.373 200.601 35.2143 199.911 35.2143 199.136ZM41.7103 199.15C41.7103 198.571 41.5936 198.067 41.3603 197.638C41.127 197.209 40.8096 196.882 40.4083 196.658C40.0163 196.425 39.5823 196.308 39.1063 196.308C38.6303 196.308 38.1963 196.42 37.8043 196.644C37.4123 196.868 37.0996 197.195 36.8663 197.624C36.633 198.053 36.5163 198.557 36.5163 199.136C36.5163 199.724 36.633 200.237 36.8663 200.676C37.0996 201.105 37.4123 201.437 37.8043 201.67C38.1963 201.894 38.6303 202.006 39.1063 202.006C39.5823 202.006 40.0163 201.894 40.4083 201.67C40.8096 201.437 41.127 201.105 41.3603 200.676C41.5936 200.237 41.7103 199.729 41.7103 199.15ZM46.4252 196.574C46.6492 196.135 46.9666 195.795 47.3772 195.552C47.7972 195.309 48.3059 195.188 48.9032 195.188V196.504H48.5672C47.1392 196.504 46.4252 197.279 46.4252 198.828V203H45.1512V195.328H46.4252V196.574ZM54.1119 195.188C55.0452 195.188 55.8012 195.473 56.3799 196.042C56.9586 196.602 57.2479 197.414 57.2479 198.478V203H55.9879V198.66C55.9879 197.895 55.7966 197.311 55.4139 196.91C55.0312 196.499 54.5086 196.294 53.8459 196.294C53.1739 196.294 52.6372 196.504 52.2359 196.924C51.8439 197.344 51.6479 197.955 51.6479 198.758V203H50.3739V195.328H51.6479V196.42C51.8999 196.028 52.2406 195.725 52.6699 195.51C53.1086 195.295 53.5892 195.188 54.1119 195.188ZM59.987 194.082C59.7443 194.082 59.539 193.998 59.371 193.83C59.203 193.662 59.119 193.457 59.119 193.214C59.119 192.971 59.203 192.766 59.371 192.598C59.539 192.43 59.7443 192.346 59.987 192.346C60.2203 192.346 60.4163 192.43 60.575 192.598C60.743 192.766 60.827 192.971 60.827 193.214C60.827 193.457 60.743 193.662 60.575 193.83C60.4163 193.998 60.2203 194.082 59.987 194.082ZM60.603 195.328V203H59.329V195.328H60.603ZM66.5123 195.188C67.4456 195.188 68.2016 195.473 68.7803 196.042C69.359 196.602 69.6483 197.414 69.6483 198.478V203H68.3883V198.66C68.3883 197.895 68.197 197.311 67.8143 196.91C67.4316 196.499 66.909 196.294 66.2463 196.294C65.5743 196.294 65.0376 196.504 64.6363 196.924C64.2443 197.344 64.0483 197.955 64.0483 198.758V203H62.7743V195.328H64.0483V196.42C64.3003 196.028 64.641 195.725 65.0703 195.51C65.509 195.295 65.9896 195.188 66.5123 195.188ZM74.8934 195.202C75.556 195.202 76.1347 195.347 76.6294 195.636C77.1334 195.925 77.5067 196.289 77.7494 196.728V195.328H79.0374V203.168C79.0374 203.868 78.888 204.489 78.5894 205.03C78.2907 205.581 77.8614 206.01 77.3014 206.318C76.7507 206.626 76.1067 206.78 75.3694 206.78C74.3614 206.78 73.5214 206.542 72.8494 206.066C72.1774 205.59 71.7807 204.941 71.6594 204.12H72.9194C73.0594 204.587 73.3487 204.96 73.7874 205.24C74.226 205.529 74.7534 205.674 75.3694 205.674C76.0694 205.674 76.6387 205.455 77.0774 205.016C77.5254 204.577 77.7494 203.961 77.7494 203.168V201.558C77.4974 202.006 77.124 202.379 76.6294 202.678C76.1347 202.977 75.556 203.126 74.8934 203.126C74.212 203.126 73.5914 202.958 73.0314 202.622C72.4807 202.286 72.0467 201.815 71.7294 201.208C71.412 200.601 71.2534 199.911 71.2534 199.136C71.2534 198.352 71.412 197.666 71.7294 197.078C72.0467 196.481 72.4807 196.019 73.0314 195.692C73.5914 195.365 74.212 195.202 74.8934 195.202ZM77.7494 199.15C77.7494 198.571 77.6327 198.067 77.3994 197.638C77.166 197.209 76.8487 196.882 76.4474 196.658C76.0554 196.425 75.6214 196.308 75.1454 196.308C74.6694 196.308 74.2354 196.42 73.8434 196.644C73.4514 196.868 73.1387 197.195 72.9054 197.624C72.672 198.053 72.5554 198.557 72.5554 199.136C72.5554 199.724 72.672 200.237 72.9054 200.676C73.1387 201.105 73.4514 201.437 73.8434 201.67C74.2354 201.894 74.6694 202.006 75.1454 202.006C75.6214 202.006 76.0554 201.894 76.4474 201.67C76.8487 201.437 77.166 201.105 77.3994 200.676C77.6327 200.237 77.7494 199.729 77.7494 199.15ZM33.2473 223L30.9233 219.01H29.3833V223H28.1093V213.242H31.2593C31.9966 213.242 32.6173 213.368 33.1213 213.62C33.6346 213.872 34.0173 214.213 34.2693 214.642C34.5213 215.071 34.6473 215.561 34.6473 216.112C34.6473 216.784 34.4513 217.377 34.0593 217.89C33.6766 218.403 33.0979 218.744 32.3233 218.912L34.7733 223H33.2473ZM29.3833 217.988H31.2593C31.9499 217.988 32.4679 217.82 32.8133 217.484C33.1586 217.139 33.3313 216.681 33.3313 216.112C33.3313 215.533 33.1586 215.085 32.8133 214.768C32.4773 214.451 31.9593 214.292 31.2593 214.292H29.3833V217.988ZM43.6268 218.87C43.6268 219.113 43.6128 219.369 43.5848 219.64H37.4528C37.4995 220.396 37.7562 220.989 38.2228 221.418C38.6988 221.838 39.2728 222.048 39.9448 222.048C40.4955 222.048 40.9528 221.922 41.3168 221.67C41.6902 221.409 41.9515 221.063 42.1008 220.634H43.4728C43.2675 221.371 42.8568 221.973 42.2408 222.44C41.6248 222.897 40.8595 223.126 39.9448 223.126C39.2168 223.126 38.5635 222.963 37.9848 222.636C37.4155 222.309 36.9675 221.847 36.6408 221.25C36.3142 220.643 36.1508 219.943 36.1508 219.15C36.1508 218.357 36.3095 217.661 36.6268 217.064C36.9442 216.467 37.3875 216.009 37.9568 215.692C38.5355 215.365 39.1982 215.202 39.9448 215.202C40.6728 215.202 41.3168 215.361 41.8768 215.678C42.4368 215.995 42.8662 216.434 43.1648 216.994C43.4728 217.545 43.6268 218.17 43.6268 218.87ZM42.3108 218.604C42.3108 218.119 42.2035 217.703 41.9888 217.358C41.7742 217.003 41.4802 216.737 41.1068 216.56C40.7428 216.373 40.3368 216.28 39.8888 216.28C39.2448 216.28 38.6942 216.485 38.2368 216.896C37.7888 217.307 37.5322 217.876 37.4668 218.604H42.3108ZM46.5825 216.742C46.8345 216.303 47.2078 215.939 47.7025 215.65C48.2065 215.351 48.7898 215.202 49.4525 215.202C50.1338 215.202 50.7498 215.365 51.3005 215.692C51.8605 216.019 52.2991 216.481 52.6165 217.078C52.9338 217.666 53.0925 218.352 53.0925 219.136C53.0925 219.911 52.9338 220.601 52.6165 221.208C52.2991 221.815 51.8605 222.286 51.3005 222.622C50.7498 222.958 50.1338 223.126 49.4525 223.126C48.7991 223.126 48.2205 222.981 47.7165 222.692C47.2218 222.393 46.8438 222.025 46.5825 221.586V226.64H45.3085V215.328H46.5825V216.742ZM51.7905 219.136C51.7905 218.557 51.6738 218.053 51.4405 217.624C51.2071 217.195 50.8898 216.868 50.4885 216.644C50.0965 216.42 49.6625 216.308 49.1865 216.308C48.7198 216.308 48.2858 216.425 47.8845 216.658C47.4925 216.882 47.1751 217.213 46.9325 217.652C46.6991 218.081 46.5825 218.581 46.5825 219.15C46.5825 219.729 46.6991 220.237 46.9325 220.676C47.1751 221.105 47.4925 221.437 47.8845 221.67C48.2858 221.894 48.7198 222.006 49.1865 222.006C49.6625 222.006 50.0965 221.894 50.4885 221.67C50.8898 221.437 51.2071 221.105 51.4405 220.676C51.6738 220.237 51.7905 219.724 51.7905 219.136ZM58.1154 223.126C57.3967 223.126 56.7434 222.963 56.1554 222.636C55.5767 222.309 55.1194 221.847 54.7834 221.25C54.4567 220.643 54.2934 219.943 54.2934 219.15C54.2934 218.366 54.4614 217.675 54.7974 217.078C55.1427 216.471 55.6094 216.009 56.1974 215.692C56.7854 215.365 57.4434 215.202 58.1714 215.202C58.8994 215.202 59.5574 215.365 60.1454 215.692C60.7334 216.009 61.1954 216.467 61.5314 217.064C61.8767 217.661 62.0494 218.357 62.0494 219.15C62.0494 219.943 61.8721 220.643 61.5174 221.25C61.1721 221.847 60.7007 222.309 60.1034 222.636C59.5061 222.963 58.8434 223.126 58.1154 223.126ZM58.1154 222.006C58.5727 222.006 59.0021 221.899 59.4034 221.684C59.8047 221.469 60.1267 221.147 60.3694 220.718C60.6214 220.289 60.7474 219.766 60.7474 219.15C60.7474 218.534 60.6261 218.011 60.3834 217.582C60.1407 217.153 59.8234 216.835 59.4314 216.63C59.0394 216.415 58.6147 216.308 58.1574 216.308C57.6907 216.308 57.2614 216.415 56.8694 216.63C56.4867 216.835 56.1787 217.153 55.9454 217.582C55.7121 218.011 55.5954 218.534 55.5954 219.15C55.5954 219.775 55.7074 220.303 55.9314 220.732C56.1647 221.161 56.4727 221.483 56.8554 221.698C57.2381 221.903 57.6581 222.006 58.1154 222.006ZM64.9985 216.574C65.2225 216.135 65.5398 215.795 65.9505 215.552C66.3705 215.309 66.8792 215.188 67.4765 215.188V216.504H67.1405C65.7125 216.504 64.9985 217.279 64.9985 218.828V223H63.7245V215.328H64.9985V216.574ZM70.5011 216.378V220.9C70.5011 221.273 70.5805 221.539 70.7391 221.698C70.8978 221.847 71.1731 221.922 71.5651 221.922H72.5031V223H71.3551C70.6458 223 70.1138 222.837 69.7591 222.51C69.4045 222.183 69.2271 221.647 69.2271 220.9V216.378H68.2331V215.328H69.2271V213.396H70.5011V215.328H72.5031V216.378H70.5011Z" fill="black"/>
<rect x="132" y="120" width="60" height="60" fill="#D9D9D9"/>
<path d="M133.146 198.114C133.146 197.162 133.361 196.308 133.79 195.552C134.219 194.787 134.803 194.189 135.54 193.76C136.287 193.331 137.113 193.116 138.018 193.116C139.082 193.116 140.011 193.373 140.804 193.886C141.597 194.399 142.176 195.127 142.54 196.07H141.014C140.743 195.482 140.351 195.029 139.838 194.712C139.334 194.395 138.727 194.236 138.018 194.236C137.337 194.236 136.725 194.395 136.184 194.712C135.643 195.029 135.218 195.482 134.91 196.07C134.602 196.649 134.448 197.33 134.448 198.114C134.448 198.889 134.602 199.57 134.91 200.158C135.218 200.737 135.643 201.185 136.184 201.502C136.725 201.819 137.337 201.978 138.018 201.978C138.727 201.978 139.334 201.824 139.838 201.516C140.351 201.199 140.743 200.746 141.014 200.158H142.54C142.176 201.091 141.597 201.815 140.804 202.328C140.011 202.832 139.082 203.084 138.018 203.084C137.113 203.084 136.287 202.874 135.54 202.454C134.803 202.025 134.219 201.432 133.79 200.676C133.361 199.92 133.146 199.066 133.146 198.114ZM147.782 203.126C147.064 203.126 146.41 202.963 145.822 202.636C145.244 202.309 144.786 201.847 144.45 201.25C144.124 200.643 143.96 199.943 143.96 199.15C143.96 198.366 144.128 197.675 144.464 197.078C144.81 196.471 145.276 196.009 145.864 195.692C146.452 195.365 147.11 195.202 147.838 195.202C148.566 195.202 149.224 195.365 149.812 195.692C150.4 196.009 150.862 196.467 151.198 197.064C151.544 197.661 151.716 198.357 151.716 199.15C151.716 199.943 151.539 200.643 151.184 201.25C150.839 201.847 150.368 202.309 149.77 202.636C149.173 202.963 148.51 203.126 147.782 203.126ZM147.782 202.006C148.24 202.006 148.669 201.899 149.07 201.684C149.472 201.469 149.794 201.147 150.036 200.718C150.288 200.289 150.414 199.766 150.414 199.15C150.414 198.534 150.293 198.011 150.05 197.582C149.808 197.153 149.49 196.835 149.098 196.63C148.706 196.415 148.282 196.308 147.824 196.308C147.358 196.308 146.928 196.415 146.536 196.63C146.154 196.835 145.846 197.153 145.612 197.582C145.379 198.011 145.262 198.534 145.262 199.15C145.262 199.775 145.374 200.303 145.598 200.732C145.832 201.161 146.14 201.483 146.522 201.698C146.905 201.903 147.325 202.006 147.782 202.006ZM157.129 195.188C158.063 195.188 158.819 195.473 159.397 196.042C159.976 196.602 160.265 197.414 160.265 198.478V203H159.005V198.66C159.005 197.895 158.814 197.311 158.431 196.91C158.049 196.499 157.526 196.294 156.863 196.294C156.191 196.294 155.655 196.504 155.253 196.924C154.861 197.344 154.665 197.955 154.665 198.758V203H153.391V195.328H154.665V196.42C154.917 196.028 155.258 195.725 155.687 195.51C156.126 195.295 156.607 195.188 157.129 195.188ZM163.901 196.378V200.9C163.901 201.273 163.98 201.539 164.139 201.698C164.297 201.847 164.573 201.922 164.965 201.922H165.903V203H164.755C164.045 203 163.513 202.837 163.159 202.51C162.804 202.183 162.627 201.647 162.627 200.9V196.378H161.633V195.328H162.627V193.396H163.901V195.328H165.903V196.378H163.901ZM168.72 196.574C168.944 196.135 169.261 195.795 169.672 195.552C170.092 195.309 170.601 195.188 171.198 195.188V196.504H170.862C169.434 196.504 168.72 197.279 168.72 198.828V203H167.446V195.328H168.72V196.574ZM176.015 203.126C175.296 203.126 174.643 202.963 174.055 202.636C173.476 202.309 173.019 201.847 172.683 201.25C172.356 200.643 172.193 199.943 172.193 199.15C172.193 198.366 172.361 197.675 172.697 197.078C173.042 196.471 173.509 196.009 174.097 195.692C174.685 195.365 175.343 195.202 176.071 195.202C176.799 195.202 177.457 195.365 178.045 195.692C178.633 196.009 179.095 196.467 179.431 197.064C179.776 197.661 179.949 198.357 179.949 199.15C179.949 199.943 179.771 200.643 179.417 201.25C179.071 201.847 178.6 202.309 178.003 202.636C177.405 202.963 176.743 203.126 176.015 203.126ZM176.015 202.006C176.472 202.006 176.901 201.899 177.303 201.684C177.704 201.469 178.026 201.147 178.269 200.718C178.521 200.289 178.647 199.766 178.647 199.15C178.647 198.534 178.525 198.011 178.283 197.582C178.04 197.153 177.723 196.835 177.331 196.63C176.939 196.415 176.514 196.308 176.057 196.308C175.59 196.308 175.161 196.415 174.769 196.63C174.386 196.835 174.078 197.153 173.845 197.582C173.611 198.011 173.495 198.534 173.495 199.15C173.495 199.775 173.607 200.303 173.831 200.732C174.064 201.161 174.372 201.483 174.755 201.698C175.137 201.903 175.557 202.006 176.015 202.006ZM182.898 192.64V203H181.624V192.64H182.898ZM146.838 216.098C146.838 216.91 146.558 217.587 145.998 218.128C145.448 218.66 144.603 218.926 143.464 218.926H141.588V223H140.314V213.242H143.464C144.566 213.242 145.401 213.508 145.97 214.04C146.549 214.572 146.838 215.258 146.838 216.098ZM143.464 217.876C144.174 217.876 144.696 217.722 145.032 217.414C145.368 217.106 145.536 216.667 145.536 216.098C145.536 214.894 144.846 214.292 143.464 214.292H141.588V217.876H143.464ZM147.946 219.136C147.946 218.352 148.104 217.666 148.422 217.078C148.739 216.481 149.173 216.019 149.724 215.692C150.284 215.365 150.904 215.202 151.586 215.202C152.258 215.202 152.841 215.347 153.336 215.636C153.83 215.925 154.199 216.289 154.442 216.728V215.328H155.73V223H154.442V221.572C154.19 222.02 153.812 222.393 153.308 222.692C152.813 222.981 152.234 223.126 151.572 223.126C150.89 223.126 150.274 222.958 149.724 222.622C149.173 222.286 148.739 221.815 148.422 221.208C148.104 220.601 147.946 219.911 147.946 219.136ZM154.442 219.15C154.442 218.571 154.325 218.067 154.092 217.638C153.858 217.209 153.541 216.882 153.14 216.658C152.748 216.425 152.314 216.308 151.838 216.308C151.362 216.308 150.928 216.42 150.536 216.644C150.144 216.868 149.831 217.195 149.598 217.624C149.364 218.053 149.248 218.557 149.248 219.136C149.248 219.724 149.364 220.237 149.598 220.676C149.831 221.105 150.144 221.437 150.536 221.67C150.928 221.894 151.362 222.006 151.838 222.006C152.314 222.006 152.748 221.894 153.14 221.67C153.541 221.437 153.858 221.105 154.092 220.676C154.325 220.237 154.442 219.729 154.442 219.15ZM159.157 216.574C159.381 216.135 159.698 215.795 160.109 215.552C160.529 215.309 161.037 215.188 161.635 215.188V216.504H161.299C159.871 216.504 159.157 217.279 159.157 218.828V223H157.883V215.328H159.157V216.574ZM170.105 218.87C170.105 219.113 170.091 219.369 170.063 219.64H163.931C163.978 220.396 164.235 220.989 164.701 221.418C165.177 221.838 165.751 222.048 166.423 222.048C166.974 222.048 167.431 221.922 167.795 221.67C168.169 221.409 168.43 221.063 168.579 220.634H169.951C169.746 221.371 169.335 221.973 168.719 222.44C168.103 222.897 167.338 223.126 166.423 223.126C165.695 223.126 165.042 222.963 164.463 222.636C163.894 222.309 163.446 221.847 163.119 221.25C162.793 220.643 162.629 219.943 162.629 219.15C162.629 218.357 162.788 217.661 163.105 217.064C163.423 216.467 163.866 216.009 164.435 215.692C165.014 215.365 165.677 215.202 166.423 215.202C167.151 215.202 167.795 215.361 168.355 215.678C168.915 215.995 169.345 216.434 169.643 216.994C169.951 217.545 170.105 218.17 170.105 218.87ZM168.789 218.604C168.789 218.119 168.682 217.703 168.467 217.358C168.253 217.003 167.959 216.737 167.585 216.56C167.221 216.373 166.815 216.28 166.367 216.28C165.723 216.28 165.173 216.485 164.715 216.896C164.267 217.307 164.011 217.876 163.945 218.604H168.789ZM175.525 215.188C176.458 215.188 177.214 215.473 177.793 216.042C178.372 216.602 178.661 217.414 178.661 218.478V223H177.401V218.66C177.401 217.895 177.21 217.311 176.827 216.91C176.444 216.499 175.922 216.294 175.259 216.294C174.587 216.294 174.05 216.504 173.649 216.924C173.257 217.344 173.061 217.955 173.061 218.758V223H171.787V215.328H173.061V216.42C173.313 216.028 173.654 215.725 174.083 215.51C174.522 215.295 175.002 215.188 175.525 215.188ZM182.296 216.378V220.9C182.296 221.273 182.375 221.539 182.534 221.698C182.693 221.847 182.968 221.922 183.36 221.922H184.298V223H183.15C182.441 223 181.909 222.837 181.554 222.51C181.199 222.183 181.022 221.647 181.022 220.9V216.378H180.028V215.328H181.022V213.396H182.296V215.328H184.298V216.378H182.296Z" fill="black"/>
<rect x="244" y="120" width="60" height="60" fill="#D9D9D9"/>
<path d="M256.422 193.242V194.278H252.18V197.568H255.624V198.604H252.18V203H250.906V193.242H256.422ZM261.307 203.126C260.588 203.126 259.935 202.963 259.347 202.636C258.768 202.309 258.311 201.847 257.975 201.25C257.648 200.643 257.485 199.943 257.485 199.15C257.485 198.366 257.653 197.675 257.989 197.078C258.334 196.471 258.801 196.009 259.389 195.692C259.977 195.365 260.635 195.202 261.363 195.202C262.091 195.202 262.749 195.365 263.337 195.692C263.925 196.009 264.387 196.467 264.723 197.064C265.068 197.661 265.241 198.357 265.241 199.15C265.241 199.943 265.063 200.643 264.709 201.25C264.363 201.847 263.892 202.309 263.295 202.636C262.697 202.963 262.035 203.126 261.307 203.126ZM261.307 202.006C261.764 202.006 262.193 201.899 262.595 201.684C262.996 201.469 263.318 201.147 263.561 200.718C263.813 200.289 263.939 199.766 263.939 199.15C263.939 198.534 263.817 198.011 263.575 197.582C263.332 197.153 263.015 196.835 262.623 196.63C262.231 196.415 261.806 196.308 261.349 196.308C260.882 196.308 260.453 196.415 260.061 196.63C259.678 196.835 259.37 197.153 259.137 197.582C258.903 198.011 258.787 198.534 258.787 199.15C258.787 199.775 258.899 200.303 259.123 200.732C259.356 201.161 259.664 201.483 260.047 201.698C260.429 201.903 260.849 202.006 261.307 202.006ZM268.19 196.574C268.414 196.135 268.731 195.795 269.142 195.552C269.562 195.309 270.071 195.188 270.668 195.188V196.504H270.332C268.904 196.504 268.19 197.279 268.19 198.828V203H266.916V195.328H268.19V196.574ZM278.943 195.328V203H277.669V201.866C277.426 202.258 277.085 202.566 276.647 202.79C276.217 203.005 275.741 203.112 275.219 203.112C274.621 203.112 274.085 202.991 273.609 202.748C273.133 202.496 272.755 202.123 272.475 201.628C272.204 201.133 272.069 200.531 272.069 199.822V195.328H273.329V199.654C273.329 200.41 273.52 200.993 273.903 201.404C274.285 201.805 274.808 202.006 275.471 202.006C276.152 202.006 276.689 201.796 277.081 201.376C277.473 200.956 277.669 200.345 277.669 199.542V195.328H278.943ZM290.32 195.188C290.917 195.188 291.449 195.314 291.916 195.566C292.382 195.809 292.751 196.177 293.022 196.672C293.292 197.167 293.428 197.769 293.428 198.478V203H292.168V198.66C292.168 197.895 291.976 197.311 291.594 196.91C291.22 196.499 290.712 196.294 290.068 196.294C289.405 196.294 288.878 196.509 288.486 196.938C288.094 197.358 287.898 197.969 287.898 198.772V203H286.638V198.66C286.638 197.895 286.446 197.311 286.064 196.91C285.69 196.499 285.182 196.294 284.538 196.294C283.875 196.294 283.348 196.509 282.956 196.938C282.564 197.358 282.368 197.969 282.368 198.772V203H281.094V195.328H282.368V196.434C282.62 196.033 282.956 195.725 283.376 195.51C283.805 195.295 284.276 195.188 284.79 195.188C285.434 195.188 286.003 195.333 286.498 195.622C286.992 195.911 287.361 196.336 287.604 196.896C287.818 196.355 288.173 195.935 288.668 195.636C289.162 195.337 289.713 195.188 290.32 195.188ZM241.065 213.242C242.129 213.242 243.049 213.443 243.823 213.844C244.607 214.236 245.205 214.801 245.615 215.538C246.035 216.275 246.245 217.143 246.245 218.142C246.245 219.141 246.035 220.009 245.615 220.746C245.205 221.474 244.607 222.034 243.823 222.426C243.049 222.809 242.129 223 241.065 223H238.027V213.242H241.065ZM241.065 221.95C242.325 221.95 243.287 221.619 243.949 220.956C244.612 220.284 244.943 219.346 244.943 218.142C244.943 216.929 244.607 215.981 243.935 215.3C243.273 214.619 242.316 214.278 241.065 214.278H239.301V221.95H241.065ZM248.584 214.082C248.341 214.082 248.136 213.998 247.968 213.83C247.8 213.662 247.716 213.457 247.716 213.214C247.716 212.971 247.8 212.766 247.968 212.598C248.136 212.43 248.341 212.346 248.584 212.346C248.817 212.346 249.013 212.43 249.172 212.598C249.34 212.766 249.424 212.971 249.424 213.214C249.424 213.457 249.34 213.662 249.172 213.83C249.013 213.998 248.817 214.082 248.584 214.082ZM249.2 215.328V223H247.926V215.328H249.2ZM254.087 223.126C253.499 223.126 252.972 223.028 252.505 222.832C252.038 222.627 251.67 222.347 251.399 221.992C251.128 221.628 250.979 221.213 250.951 220.746H252.267C252.304 221.129 252.482 221.441 252.799 221.684C253.126 221.927 253.55 222.048 254.073 222.048C254.558 222.048 254.941 221.941 255.221 221.726C255.501 221.511 255.641 221.241 255.641 220.914C255.641 220.578 255.492 220.331 255.193 220.172C254.894 220.004 254.432 219.841 253.807 219.682C253.238 219.533 252.771 219.383 252.407 219.234C252.052 219.075 251.744 218.847 251.483 218.548C251.231 218.24 251.105 217.839 251.105 217.344C251.105 216.952 251.222 216.593 251.455 216.266C251.688 215.939 252.02 215.683 252.449 215.496C252.878 215.3 253.368 215.202 253.919 215.202C254.768 215.202 255.454 215.417 255.977 215.846C256.5 216.275 256.78 216.863 256.817 217.61H255.543C255.515 217.209 255.352 216.887 255.053 216.644C254.764 216.401 254.372 216.28 253.877 216.28C253.42 216.28 253.056 216.378 252.785 216.574C252.514 216.77 252.379 217.027 252.379 217.344C252.379 217.596 252.458 217.806 252.617 217.974C252.785 218.133 252.99 218.263 253.233 218.366C253.485 218.459 253.83 218.567 254.269 218.688C254.82 218.837 255.268 218.987 255.613 219.136C255.958 219.276 256.252 219.491 256.495 219.78C256.747 220.069 256.878 220.447 256.887 220.914C256.887 221.334 256.77 221.712 256.537 222.048C256.304 222.384 255.972 222.65 255.543 222.846C255.123 223.033 254.638 223.126 254.087 223.126ZM258.209 219.15C258.209 218.357 258.368 217.666 258.685 217.078C259.003 216.481 259.441 216.019 260.001 215.692C260.571 215.365 261.219 215.202 261.947 215.202C262.89 215.202 263.665 215.431 264.271 215.888C264.887 216.345 265.293 216.98 265.489 217.792H264.117C263.987 217.325 263.73 216.957 263.347 216.686C262.974 216.415 262.507 216.28 261.947 216.28C261.219 216.28 260.631 216.532 260.183 217.036C259.735 217.531 259.511 218.235 259.511 219.15C259.511 220.074 259.735 220.788 260.183 221.292C260.631 221.796 261.219 222.048 261.947 222.048C262.507 222.048 262.974 221.917 263.347 221.656C263.721 221.395 263.977 221.021 264.117 220.536H265.489C265.284 221.32 264.873 221.95 264.257 222.426C263.641 222.893 262.871 223.126 261.947 223.126C261.219 223.126 260.571 222.963 260.001 222.636C259.441 222.309 259.003 221.847 258.685 221.25C258.368 220.653 258.209 219.953 258.209 219.15ZM273.993 215.328V223H272.719V221.866C272.477 222.258 272.136 222.566 271.697 222.79C271.268 223.005 270.792 223.112 270.269 223.112C269.672 223.112 269.135 222.991 268.659 222.748C268.183 222.496 267.805 222.123 267.525 221.628C267.255 221.133 267.119 220.531 267.119 219.822V215.328H268.379V219.654C268.379 220.41 268.571 220.993 268.953 221.404C269.336 221.805 269.859 222.006 270.521 222.006C271.203 222.006 271.739 221.796 272.131 221.376C272.523 220.956 272.719 220.345 272.719 219.542V215.328H273.993ZM278.86 223.126C278.272 223.126 277.745 223.028 277.278 222.832C276.812 222.627 276.443 222.347 276.172 221.992C275.902 221.628 275.752 221.213 275.724 220.746H277.04C277.078 221.129 277.255 221.441 277.572 221.684C277.899 221.927 278.324 222.048 278.846 222.048C279.332 222.048 279.714 221.941 279.994 221.726C280.274 221.511 280.414 221.241 280.414 220.914C280.414 220.578 280.265 220.331 279.966 220.172C279.668 220.004 279.206 219.841 278.58 219.682C278.011 219.533 277.544 219.383 277.18 219.234C276.826 219.075 276.518 218.847 276.256 218.548C276.004 218.24 275.878 217.839 275.878 217.344C275.878 216.952 275.995 216.593 276.228 216.266C276.462 215.939 276.793 215.683 277.222 215.496C277.652 215.3 278.142 215.202 278.692 215.202C279.542 215.202 280.228 215.417 280.75 215.846C281.273 216.275 281.553 216.863 281.59 217.61H280.316C280.288 217.209 280.125 216.887 279.826 216.644C279.537 216.401 279.145 216.28 278.65 216.28C278.193 216.28 277.829 216.378 277.558 216.574C277.288 216.77 277.152 217.027 277.152 217.344C277.152 217.596 277.232 217.806 277.39 217.974C277.558 218.133 277.764 218.263 278.006 218.366C278.258 218.459 278.604 218.567 279.042 218.688C279.593 218.837 280.041 218.987 280.386 219.136C280.732 219.276 281.026 219.491 281.268 219.78C281.52 220.069 281.651 220.447 281.66 220.914C281.66 221.334 281.544 221.712 281.31 222.048C281.077 222.384 280.746 222.65 280.316 222.846C279.896 223.033 279.411 223.126 278.86 223.126ZM286.175 223.126C285.587 223.126 285.06 223.028 284.593 222.832C284.126 222.627 283.758 222.347 283.487 221.992C283.216 221.628 283.067 221.213 283.039 220.746H284.355C284.392 221.129 284.57 221.441 284.887 221.684C285.214 221.927 285.638 222.048 286.161 222.048C286.646 222.048 287.029 221.941 287.309 221.726C287.589 221.511 287.729 221.241 287.729 220.914C287.729 220.578 287.58 220.331 287.281 220.172C286.982 220.004 286.52 219.841 285.895 219.682C285.326 219.533 284.859 219.383 284.495 219.234C284.14 219.075 283.832 218.847 283.571 218.548C283.319 218.24 283.193 217.839 283.193 217.344C283.193 216.952 283.31 216.593 283.543 216.266C283.776 215.939 284.108 215.683 284.537 215.496C284.966 215.3 285.456 215.202 286.007 215.202C286.856 215.202 287.542 215.417 288.065 215.846C288.588 216.275 288.868 216.863 288.905 217.61H287.631C287.603 217.209 287.44 216.887 287.141 216.644C286.852 216.401 286.46 216.28 285.965 216.28C285.508 216.28 285.144 216.378 284.873 216.574C284.602 216.77 284.467 217.027 284.467 217.344C284.467 217.596 284.546 217.806 284.705 217.974C284.873 218.133 285.078 218.263 285.321 218.366C285.573 218.459 285.918 218.567 286.357 218.688C286.908 218.837 287.356 218.987 287.701 219.136C288.046 219.276 288.34 219.491 288.583 219.78C288.835 220.069 288.966 220.447 288.975 220.914C288.975 221.334 288.858 221.712 288.625 222.048C288.392 222.384 288.06 222.65 287.631 222.846C287.211 223.033 286.726 223.126 286.175 223.126ZM291.431 214.082C291.189 214.082 290.983 213.998 290.815 213.83C290.647 213.662 290.563 213.457 290.563 213.214C290.563 212.971 290.647 212.766 290.815 212.598C290.983 212.43 291.189 212.346 291.431 212.346C291.665 212.346 291.861 212.43 292.019 212.598C292.187 212.766 292.271 212.971 292.271 213.214C292.271 213.457 292.187 213.662 292.019 213.83C291.861 213.998 291.665 214.082 291.431 214.082ZM292.047 215.328V223H290.773V215.328H292.047ZM297.565 223.126C296.846 223.126 296.193 222.963 295.605 222.636C295.026 222.309 294.569 221.847 294.233 221.25C293.906 220.643 293.743 219.943 293.743 219.15C293.743 218.366 293.911 217.675 294.247 217.078C294.592 216.471 295.059 216.009 295.647 215.692C296.235 215.365 296.893 215.202 297.621 215.202C298.349 215.202 299.007 215.365 299.595 215.692C300.183 216.009 300.645 216.467 300.981 217.064C301.326 217.661 301.499 218.357 301.499 219.15C301.499 219.943 301.321 220.643 300.967 221.25C300.621 221.847 300.15 222.309 299.553 222.636C298.955 222.963 298.293 223.126 297.565 223.126ZM297.565 222.006C298.022 222.006 298.451 221.899 298.853 221.684C299.254 221.469 299.576 221.147 299.819 220.718C300.071 220.289 300.197 219.766 300.197 219.15C300.197 218.534 300.075 218.011 299.833 217.582C299.59 217.153 299.273 216.835 298.881 216.63C298.489 216.415 298.064 216.308 297.607 216.308C297.14 216.308 296.711 216.415 296.319 216.63C295.936 216.835 295.628 217.153 295.395 217.582C295.161 218.011 295.045 218.534 295.045 219.15C295.045 219.775 295.157 220.303 295.381 220.732C295.614 221.161 295.922 221.483 296.305 221.698C296.687 221.903 297.107 222.006 297.565 222.006ZM306.912 215.188C307.845 215.188 308.601 215.473 309.18 216.042C309.758 216.602 310.048 217.414 310.048 218.478V223H308.788V218.66C308.788 217.895 308.596 217.311 308.214 216.91C307.831 216.499 307.308 216.294 306.646 216.294C305.974 216.294 305.437 216.504 305.036 216.924C304.644 217.344 304.448 217.955 304.448 218.758V223H303.174V215.328H304.448V216.42C304.7 216.028 305.04 215.725 305.47 215.51C305.908 215.295 306.389 215.188 306.912 215.188Z" fill="black"/>
<rect x="20" y="240" width="60" height="60" fill="#D9D9D9"/>
<path d="M22.6225 314.278V317.54H26.1785V318.59H22.6225V321.95H26.5985V323H21.3485V313.228H26.5985V314.278H22.6225ZM32.5302 323L30.7102 320.144L28.9602 323H27.6302L30.1082 319.192L27.6302 315.328H29.0722L30.8922 318.17L32.6282 315.328H33.9582L31.4942 319.122L33.9722 323H32.5302ZM42.2255 318.87C42.2255 319.113 42.2115 319.369 42.1835 319.64H36.0515C36.0981 320.396 36.3548 320.989 36.8215 321.418C37.2975 321.838 37.8715 322.048 38.5435 322.048C39.0941 322.048 39.5515 321.922 39.9155 321.67C40.2888 321.409 40.5501 321.063 40.6995 320.634H42.0715C41.8661 321.371 41.4555 321.973 40.8395 322.44C40.2235 322.897 39.4581 323.126 38.5435 323.126C37.8155 323.126 37.1621 322.963 36.5835 322.636C36.0141 322.309 35.5661 321.847 35.2395 321.25C34.9128 320.643 34.7495 319.943 34.7495 319.15C34.7495 318.357 34.9081 317.661 35.2255 317.064C35.5428 316.467 35.9861 316.009 36.5555 315.692C37.1341 315.365 37.7968 315.202 38.5435 315.202C39.2715 315.202 39.9155 315.361 40.4755 315.678C41.0355 315.995 41.4648 316.434 41.7635 316.994C42.0715 317.545 42.2255 318.17 42.2255 318.87ZM40.9095 318.604C40.9095 318.119 40.8021 317.703 40.5875 317.358C40.3728 317.003 40.0788 316.737 39.7055 316.56C39.3415 316.373 38.9355 316.28 38.4875 316.28C37.8435 316.28 37.2928 316.485 36.8355 316.896C36.3875 317.307 36.1308 317.876 36.0655 318.604H40.9095ZM45.1811 316.574C45.4051 316.135 45.7224 315.795 46.1331 315.552C46.5531 315.309 47.0618 315.188 47.6591 315.188V316.504H47.3231C45.8951 316.504 45.1811 317.279 45.1811 318.828V323H43.9071V315.328H45.1811V316.574ZM48.6538 319.15C48.6538 318.357 48.8124 317.666 49.1298 317.078C49.4471 316.481 49.8858 316.019 50.4458 315.692C51.0151 315.365 51.6638 315.202 52.3918 315.202C53.3344 315.202 54.1091 315.431 54.7158 315.888C55.3318 316.345 55.7378 316.98 55.9338 317.792H54.5618C54.4311 317.325 54.1744 316.957 53.7918 316.686C53.4184 316.415 52.9518 316.28 52.3918 316.28C51.6638 316.28 51.0758 316.532 50.6278 317.036C50.1798 317.531 49.9558 318.235 49.9558 319.15C49.9558 320.074 50.1798 320.788 50.6278 321.292C51.0758 321.796 51.6638 322.048 52.3918 322.048C52.9518 322.048 53.4184 321.917 53.7918 321.656C54.1651 321.395 54.4218 321.021 54.5618 320.536H55.9338C55.7284 321.32 55.3178 321.95 54.7018 322.426C54.0858 322.893 53.3158 323.126 52.3918 323.126C51.6638 323.126 51.0151 322.963 50.4458 322.636C49.8858 322.309 49.4471 321.847 49.1298 321.25C48.8124 320.653 48.6538 319.953 48.6538 319.15ZM58.2917 314.082C58.049 314.082 57.8437 313.998 57.6757 313.83C57.5077 313.662 57.4237 313.457 57.4237 313.214C57.4237 312.971 57.5077 312.766 57.6757 312.598C57.8437 312.43 58.049 312.346 58.2917 312.346C58.525 312.346 58.721 312.43 58.8797 312.598C59.0477 312.766 59.1317 312.971 59.1317 313.214C59.1317 313.457 59.0477 313.662 58.8797 313.83C58.721 313.998 58.525 314.082 58.2917 314.082ZM58.9077 315.328V323H57.6337V315.328H58.9077ZM63.795 323.126C63.207 323.126 62.6796 323.028 62.213 322.832C61.7463 322.627 61.3776 322.347 61.107 321.992C60.8363 321.628 60.687 321.213 60.659 320.746H61.975C62.0123 321.129 62.1896 321.441 62.507 321.684C62.8336 321.927 63.2583 322.048 63.781 322.048C64.2663 322.048 64.649 321.941 64.929 321.726C65.209 321.511 65.349 321.241 65.349 320.914C65.349 320.578 65.1996 320.331 64.901 320.172C64.6023 320.004 64.1403 319.841 63.515 319.682C62.9456 319.533 62.479 319.383 62.115 319.234C61.7603 319.075 61.4523 318.847 61.191 318.548C60.939 318.24 60.813 317.839 60.813 317.344C60.813 316.952 60.9296 316.593 61.163 316.266C61.3963 315.939 61.7276 315.683 62.157 315.496C62.5863 315.3 63.0763 315.202 63.627 315.202C64.4763 315.202 65.1623 315.417 65.685 315.846C66.2076 316.275 66.4876 316.863 66.525 317.61H65.251C65.223 317.209 65.0596 316.887 64.761 316.644C64.4716 316.401 64.0796 316.28 63.585 316.28C63.1276 316.28 62.7636 316.378 62.493 316.574C62.2223 316.77 62.087 317.027 62.087 317.344C62.087 317.596 62.1663 317.806 62.325 317.974C62.493 318.133 62.6983 318.263 62.941 318.366C63.193 318.459 63.5383 318.567 63.977 318.688C64.5276 318.837 64.9756 318.987 65.321 319.136C65.6663 319.276 65.9603 319.491 66.203 319.78C66.455 320.069 66.5856 320.447 66.595 320.914C66.595 321.334 66.4783 321.712 66.245 322.048C66.0116 322.384 65.6803 322.65 65.251 322.846C64.831 323.033 64.3456 323.126 63.795 323.126ZM75.3934 318.87C75.3934 319.113 75.3794 319.369 75.3514 319.64H69.2194C69.2661 320.396 69.5228 320.989 69.9894 321.418C70.4654 321.838 71.0394 322.048 71.7114 322.048C72.2621 322.048 72.7194 321.922 73.0834 321.67C73.4568 321.409 73.7181 321.063 73.8674 320.634H75.2394C75.0341 321.371 74.6234 321.973 74.0074 322.44C73.3914 322.897 72.6261 323.126 71.7114 323.126C70.9834 323.126 70.3301 322.963 69.7514 322.636C69.1821 322.309 68.7341 321.847 68.4074 321.25C68.0808 320.643 67.9174 319.943 67.9174 319.15C67.9174 318.357 68.0761 317.661 68.3934 317.064C68.7108 316.467 69.1541 316.009 69.7234 315.692C70.3021 315.365 70.9648 315.202 71.7114 315.202C72.4394 315.202 73.0834 315.361 73.6434 315.678C74.2034 315.995 74.6328 316.434 74.9314 316.994C75.2394 317.545 75.3934 318.17 75.3934 318.87ZM74.0774 318.604C74.0774 318.119 73.9701 317.703 73.7554 317.358C73.5408 317.003 73.2468 316.737 72.8734 316.56C72.5094 316.373 72.1034 316.28 71.6554 316.28C71.0114 316.28 70.4608 316.485 70.0034 316.896C69.5554 317.307 69.2988 317.876 69.2334 318.604H74.0774ZM16.986 344.848L15.04 342.902C14.564 343.033 14.0787 343.098 13.584 343.098C12.6787 343.098 11.8527 342.888 11.106 342.468C10.3594 342.039 9.7667 341.446 9.32803 340.69C8.8987 339.925 8.68403 339.066 8.68403 338.114C8.68403 337.162 8.8987 336.308 9.32803 335.552C9.7667 334.787 10.3594 334.194 11.106 333.774C11.8527 333.345 12.6787 333.13 13.584 333.13C14.4987 333.13 15.3294 333.345 16.076 333.774C16.8227 334.194 17.4107 334.782 17.84 335.538C18.2694 336.294 18.484 337.153 18.484 338.114C18.484 339.047 18.2787 339.887 17.868 340.634C17.4574 341.381 16.8927 341.969 16.174 342.398L18.638 344.848H16.986ZM9.98603 338.114C9.98603 338.889 10.14 339.57 10.448 340.158C10.7654 340.746 11.1947 341.199 11.736 341.516C12.2867 341.833 12.9027 341.992 13.584 341.992C14.2654 341.992 14.8767 341.833 15.418 341.516C15.9687 341.199 16.398 340.746 16.706 340.158C17.0234 339.57 17.182 338.889 17.182 338.114C17.182 337.33 17.0234 336.649 16.706 336.07C16.398 335.482 15.9734 335.029 15.432 334.712C14.8907 334.395 14.2747 334.236 13.584 334.236C12.8934 334.236 12.2774 334.395 11.736 334.712C11.1947 335.029 10.7654 335.482 10.448 336.07C10.14 336.649 9.98603 337.33 9.98603 338.114ZM26.9972 335.328V343H25.7232V341.866C25.4806 342.258 25.1399 342.566 24.7012 342.79C24.2719 343.005 23.7959 343.112 23.2732 343.112C22.6759 343.112 22.1392 342.991 21.6632 342.748C21.1872 342.496 20.8092 342.123 20.5292 341.628C20.2586 341.133 20.1232 340.531 20.1232 339.822V335.328H21.3832V339.654C21.3832 340.41 21.5746 340.993 21.9572 341.404C22.3399 341.805 22.8626 342.006 23.5252 342.006C24.2066 342.006 24.7432 341.796 25.1352 341.376C25.5272 340.956 25.7232 340.345 25.7232 339.542V335.328H26.9972ZM36.1483 338.87C36.1483 339.113 36.1343 339.369 36.1063 339.64H29.9743C30.021 340.396 30.2776 340.989 30.7443 341.418C31.2203 341.838 31.7943 342.048 32.4663 342.048C33.017 342.048 33.4743 341.922 33.8383 341.67C34.2116 341.409 34.473 341.063 34.6223 340.634H35.9943C35.789 341.371 35.3783 341.973 34.7623 342.44C34.1463 342.897 33.381 343.126 32.4663 343.126C31.7383 343.126 31.085 342.963 30.5063 342.636C29.937 342.309 29.489 341.847 29.1623 341.25C28.8356 340.643 28.6723 339.943 28.6723 339.15C28.6723 338.357 28.831 337.661 29.1483 337.064C29.4656 336.467 29.909 336.009 30.4783 335.692C31.057 335.365 31.7196 335.202 32.4663 335.202C33.1943 335.202 33.8383 335.361 34.3983 335.678C34.9583 335.995 35.3876 336.434 35.6863 336.994C35.9943 337.545 36.1483 338.17 36.1483 338.87ZM34.8323 338.604C34.8323 338.119 34.725 337.703 34.5103 337.358C34.2956 337.003 34.0016 336.737 33.6283 336.56C33.2643 336.373 32.8583 336.28 32.4103 336.28C31.7663 336.28 31.2156 336.485 30.7583 336.896C30.3103 337.307 30.0536 337.876 29.9883 338.604H34.8323ZM40.546 343.126C39.958 343.126 39.4306 343.028 38.964 342.832C38.4973 342.627 38.1286 342.347 37.858 341.992C37.5873 341.628 37.438 341.213 37.41 340.746H38.726C38.7633 341.129 38.9406 341.441 39.258 341.684C39.5846 341.927 40.0093 342.048 40.532 342.048C41.0173 342.048 41.4 341.941 41.68 341.726C41.96 341.511 42.1 341.241 42.1 340.914C42.1 340.578 41.9506 340.331 41.652 340.172C41.3533 340.004 40.8913 339.841 40.266 339.682C39.6966 339.533 39.23 339.383 38.866 339.234C38.5113 339.075 38.2033 338.847 37.942 338.548C37.69 338.24 37.564 337.839 37.564 337.344C37.564 336.952 37.6806 336.593 37.914 336.266C38.1473 335.939 38.4786 335.683 38.908 335.496C39.3373 335.3 39.8273 335.202 40.378 335.202C41.2273 335.202 41.9133 335.417 42.436 335.846C42.9586 336.275 43.2386 336.863 43.276 337.61H42.002C41.974 337.209 41.8106 336.887 41.512 336.644C41.2226 336.401 40.8306 336.28 40.336 336.28C39.8786 336.28 39.5146 336.378 39.244 336.574C38.9733 336.77 38.838 337.027 38.838 337.344C38.838 337.596 38.9173 337.806 39.076 337.974C39.244 338.133 39.4493 338.263 39.692 338.366C39.944 338.459 40.2893 338.567 40.728 338.688C41.2786 338.837 41.7266 338.987 42.072 339.136C42.4173 339.276 42.7113 339.491 42.954 339.78C43.206 340.069 43.3366 340.447 43.346 340.914C43.346 341.334 43.2293 341.712 42.996 342.048C42.7626 342.384 42.4313 342.65 42.002 342.846C41.582 343.033 41.0966 343.126 40.546 343.126ZM46.6984 336.378V340.9C46.6984 341.273 46.7777 341.539 46.9364 341.698C47.0951 341.847 47.3704 341.922 47.7624 341.922H48.7004V343H47.5524C46.8431 343 46.3111 342.837 45.9564 342.51C45.6017 342.183 45.4244 341.647 45.4244 340.9V336.378H44.4304V335.328H45.4244V333.396H46.6984V335.328H48.7004V336.378H46.6984ZM50.902 334.082C50.6593 334.082 50.454 333.998 50.286 333.83C50.118 333.662 50.034 333.457 50.034 333.214C50.034 332.971 50.118 332.766 50.286 332.598C50.454 332.43 50.6593 332.346 50.902 332.346C51.1353 332.346 51.3313 332.43 51.49 332.598C51.658 332.766 51.742 332.971 51.742 333.214C51.742 333.457 51.658 333.662 51.49 333.83C51.3313 333.998 51.1353 334.082 50.902 334.082ZM51.518 335.328V343H50.244V335.328H51.518ZM57.0353 343.126C56.3167 343.126 55.6633 342.963 55.0753 342.636C54.4967 342.309 54.0393 341.847 53.7033 341.25C53.3767 340.643 53.2133 339.943 53.2133 339.15C53.2133 338.366 53.3813 337.675 53.7173 337.078C54.0627 336.471 54.5293 336.009 55.1173 335.692C55.7053 335.365 56.3633 335.202 57.0913 335.202C57.8193 335.202 58.4773 335.365 59.0653 335.692C59.6533 336.009 60.1153 336.467 60.4513 337.064C60.7967 337.661 60.9693 338.357 60.9693 339.15C60.9693 339.943 60.792 340.643 60.4373 341.25C60.092 341.847 59.6207 342.309 59.0233 342.636C58.426 342.963 57.7633 343.126 57.0353 343.126ZM57.0353 342.006C57.4927 342.006 57.922 341.899 58.3233 341.684C58.7247 341.469 59.0467 341.147 59.2893 340.718C59.5413 340.289 59.6673 339.766 59.6673 339.15C59.6673 338.534 59.546 338.011 59.3033 337.582C59.0607 337.153 58.7433 336.835 58.3513 336.63C57.9593 336.415 57.5347 336.308 57.0773 336.308C56.6107 336.308 56.1813 336.415 55.7893 336.63C55.4067 336.835 55.0987 337.153 54.8653 337.582C54.632 338.011 54.5153 338.534 54.5153 339.15C54.5153 339.775 54.6273 340.303 54.8513 340.732C55.0847 341.161 55.3927 341.483 55.7753 341.698C56.158 341.903 56.578 342.006 57.0353 342.006ZM66.3824 335.188C67.3157 335.188 68.0717 335.473 68.6504 336.042C69.2291 336.602 69.5184 337.414 69.5184 338.478V343H68.2584V338.66C68.2584 337.895 68.0671 337.311 67.6844 336.91C67.3017 336.499 66.7791 336.294 66.1164 336.294C65.4444 336.294 64.9077 336.504 64.5064 336.924C64.1144 337.344 63.9184 337.955 63.9184 338.758V343H62.6444V335.328H63.9184V336.42C64.1704 336.028 64.5111 335.725 64.9404 335.51C65.3791 335.295 65.8597 335.188 66.3824 335.188ZM74.3155 343.126C73.7275 343.126 73.2002 343.028 72.7335 342.832C72.2668 342.627 71.8982 342.347 71.6275 341.992C71.3568 341.628 71.2075 341.213 71.1795 340.746H72.4955C72.5328 341.129 72.7102 341.441 73.0275 341.684C73.3542 341.927 73.7788 342.048 74.3015 342.048C74.7868 342.048 75.1695 341.941 75.4495 341.726C75.7295 341.511 75.8695 341.241 75.8695 340.914C75.8695 340.578 75.7202 340.331 75.4215 340.172C75.1228 340.004 74.6608 339.841 74.0355 339.682C73.4662 339.533 72.9995 339.383 72.6355 339.234C72.2808 339.075 71.9728 338.847 71.7115 338.548C71.4595 338.24 71.3335 337.839 71.3335 337.344C71.3335 336.952 71.4502 336.593 71.6835 336.266C71.9168 335.939 72.2482 335.683 72.6775 335.496C73.1068 335.3 73.5968 335.202 74.1475 335.202C74.9968 335.202 75.6828 335.417 76.2055 335.846C76.7282 336.275 77.0082 336.863 77.0455 337.61H75.7715C75.7435 337.209 75.5802 336.887 75.2815 336.644C74.9922 336.401 74.6002 336.28 74.1055 336.28C73.6482 336.28 73.2842 336.378 73.0135 336.574C72.7428 336.77 72.6075 337.027 72.6075 337.344C72.6075 337.596 72.6868 337.806 72.8455 337.974C73.0135 338.133 73.2188 338.263 73.4615 338.366C73.7135 338.459 74.0588 338.567 74.4975 338.688C75.0482 338.837 75.4962 338.987 75.8415 339.136C76.1868 339.276 76.4808 339.491 76.7235 339.78C76.9755 340.069 77.1062 340.447 77.1155 340.914C77.1155 341.334 76.9988 341.712 76.7655 342.048C76.5322 342.384 76.2008 342.65 75.7715 342.846C75.3515 343.033 74.8662 343.126 74.3155 343.126ZM90.1364 343L88.8624 341.712C88.3864 342.207 87.8777 342.575 87.3364 342.818C86.795 343.051 86.1837 343.168 85.5024 343.168C84.8304 343.168 84.233 343.047 83.7104 342.804C83.197 342.561 82.7957 342.216 82.5064 341.768C82.2264 341.32 82.0864 340.797 82.0864 340.2C82.0864 339.519 82.2777 338.921 82.6604 338.408C83.0524 337.885 83.6264 337.475 84.3824 337.176C84.0837 336.821 83.869 336.495 83.7384 336.196C83.6077 335.897 83.5424 335.571 83.5424 335.216C83.5424 334.805 83.645 334.437 83.8504 334.11C84.065 333.774 84.3684 333.513 84.7604 333.326C85.1524 333.139 85.605 333.046 86.1184 333.046C86.6224 333.046 87.061 333.144 87.4344 333.34C87.8077 333.536 88.0877 333.811 88.2744 334.166C88.461 334.511 88.545 334.899 88.5264 335.328H87.2524C87.2617 334.945 87.1544 334.647 86.9304 334.432C86.7064 334.208 86.417 334.096 86.0624 334.096C85.689 334.096 85.3857 334.203 85.1524 334.418C84.9284 334.623 84.8164 334.889 84.8164 335.216C84.8164 335.496 84.891 335.767 85.0404 336.028C85.199 336.289 85.4604 336.611 85.8244 336.994L88.7364 339.92L88.9884 339.528L89.9404 337.932H91.3124L90.1644 339.92C90.0057 340.2 89.819 340.494 89.6044 340.802L91.8024 343H90.1364ZM85.5024 342.076C86.0064 342.076 86.459 341.978 86.8604 341.782C87.271 341.586 87.6584 341.283 88.0224 340.872L85.1524 337.988C83.9577 338.445 83.3604 339.169 83.3604 340.158C83.3604 340.709 83.5564 341.166 83.9484 341.53C84.3497 341.894 84.8677 342.076 85.5024 342.076ZM32.8181 364.848L30.8721 362.902C30.3961 363.033 29.9107 363.098 29.4161 363.098C28.5107 363.098 27.6847 362.888 26.9381 362.468C26.1914 362.039 25.5987 361.446 25.1601 360.69C24.7307 359.925 24.5161 359.066 24.5161 358.114C24.5161 357.162 24.7307 356.308 25.1601 355.552C25.5987 354.787 26.1914 354.194 26.9381 353.774C27.6847 353.345 28.5107 353.13 29.4161 353.13C30.3307 353.13 31.1614 353.345 31.9081 353.774C32.6547 354.194 33.2427 354.782 33.6721 355.538C34.1014 356.294 34.3161 357.153 34.3161 358.114C34.3161 359.047 34.1107 359.887 33.7001 360.634C33.2894 361.381 32.7247 361.969 32.0061 362.398L34.4701 364.848H32.8181ZM25.8181 358.114C25.8181 358.889 25.9721 359.57 26.2801 360.158C26.5974 360.746 27.0267 361.199 27.5681 361.516C28.1187 361.833 28.7347 361.992 29.4161 361.992C30.0974 361.992 30.7087 361.833 31.2501 361.516C31.8007 361.199 32.2301 360.746 32.5381 360.158C32.8554 359.57 33.0141 358.889 33.0141 358.114C33.0141 357.33 32.8554 356.649 32.5381 356.07C32.2301 355.482 31.8054 355.029 31.2641 354.712C30.7227 354.395 30.1067 354.236 29.4161 354.236C28.7254 354.236 28.1094 354.395 27.5681 354.712C27.0267 355.029 26.5974 355.482 26.2801 356.07C25.9721 356.649 25.8181 357.33 25.8181 358.114ZM42.8293 355.328V363H41.5553V361.866C41.3126 362.258 40.9719 362.566 40.5333 362.79C40.1039 363.005 39.6279 363.112 39.1053 363.112C38.5079 363.112 37.9713 362.991 37.4953 362.748C37.0193 362.496 36.6413 362.123 36.3613 361.628C36.0906 361.133 35.9553 360.531 35.9553 359.822V355.328H37.2153V359.654C37.2153 360.41 37.4066 360.993 37.7893 361.404C38.1719 361.805 38.6946 362.006 39.3573 362.006C40.0386 362.006 40.5753 361.796 40.9673 361.376C41.3593 360.956 41.5553 360.345 41.5553 359.542V355.328H42.8293ZM45.6383 354.082C45.3957 354.082 45.1903 353.998 45.0223 353.83C44.8543 353.662 44.7703 353.457 44.7703 353.214C44.7703 352.971 44.8543 352.766 45.0223 352.598C45.1903 352.43 45.3957 352.346 45.6383 352.346C45.8717 352.346 46.0677 352.43 46.2263 352.598C46.3943 352.766 46.4783 352.971 46.4783 353.214C46.4783 353.457 46.3943 353.662 46.2263 353.83C46.0677 353.998 45.8717 354.082 45.6383 354.082ZM46.2543 355.328V363H44.9803V355.328H46.2543ZM49.3777 361.95H53.1437V363H47.9217V361.95L51.6457 356.364H47.9497V355.328H53.1157V356.364L49.3777 361.95ZM55.7488 361.95H59.5148V363H54.2928V361.95L58.0168 356.364H54.3208V355.328H59.4868V356.364L55.7488 361.95ZM68.1678 358.87C68.1678 359.113 68.1538 359.369 68.1258 359.64H61.9938C62.0405 360.396 62.2972 360.989 62.7638 361.418C63.2398 361.838 63.8138 362.048 64.4858 362.048C65.0365 362.048 65.4938 361.922 65.8578 361.67C66.2312 361.409 66.4925 361.063 66.6418 360.634H68.0138C67.8085 361.371 67.3978 361.973 66.7818 362.44C66.1658 362.897 65.4005 363.126 64.4858 363.126C63.7578 363.126 63.1045 362.963 62.5258 362.636C61.9565 362.309 61.5085 361.847 61.1818 361.25C60.8552 360.643 60.6918 359.943 60.6918 359.15C60.6918 358.357 60.8505 357.661 61.1678 357.064C61.4852 356.467 61.9285 356.009 62.4978 355.692C63.0765 355.365 63.7392 355.202 64.4858 355.202C65.2138 355.202 65.8578 355.361 66.4178 355.678C66.9778 355.995 67.4072 356.434 67.7058 356.994C68.0138 357.545 68.1678 358.17 68.1678 358.87ZM66.8518 358.604C66.8518 358.119 66.7445 357.703 66.5298 357.358C66.3152 357.003 66.0212 356.737 65.6478 356.56C65.2838 356.373 64.8778 356.28 64.4298 356.28C63.7858 356.28 63.2352 356.485 62.7778 356.896C62.3298 357.307 62.0732 357.876 62.0078 358.604H66.8518ZM72.5655 363.126C71.9775 363.126 71.4502 363.028 70.9835 362.832C70.5168 362.627 70.1482 362.347 69.8775 361.992C69.6068 361.628 69.4575 361.213 69.4295 360.746H70.7455C70.7828 361.129 70.9602 361.441 71.2775 361.684C71.6042 361.927 72.0288 362.048 72.5515 362.048C73.0368 362.048 73.4195 361.941 73.6995 361.726C73.9795 361.511 74.1195 361.241 74.1195 360.914C74.1195 360.578 73.9702 360.331 73.6715 360.172C73.3728 360.004 72.9108 359.841 72.2855 359.682C71.7162 359.533 71.2495 359.383 70.8855 359.234C70.5308 359.075 70.2228 358.847 69.9615 358.548C69.7095 358.24 69.5835 357.839 69.5835 357.344C69.5835 356.952 69.7002 356.593 69.9335 356.266C70.1668 355.939 70.4982 355.683 70.9275 355.496C71.3568 355.3 71.8468 355.202 72.3975 355.202C73.2468 355.202 73.9328 355.417 74.4555 355.846C74.9782 356.275 75.2582 356.863 75.2955 357.61H74.0215C73.9935 357.209 73.8302 356.887 73.5315 356.644C73.2422 356.401 72.8502 356.28 72.3555 356.28C71.8982 356.28 71.5342 356.378 71.2635 356.574C70.9928 356.77 70.8575 357.027 70.8575 357.344C70.8575 357.596 70.9368 357.806 71.0955 357.974C71.2635 358.133 71.4688 358.263 71.7115 358.366C71.9635 358.459 72.3088 358.567 72.7475 358.688C73.2982 358.837 73.7462 358.987 74.0915 359.136C74.4368 359.276 74.7308 359.491 74.9735 359.78C75.2255 360.069 75.3562 360.447 75.3655 360.914C75.3655 361.334 75.2488 361.712 75.0155 362.048C74.7822 362.384 74.4508 362.65 74.0215 362.846C73.6015 363.033 73.1162 363.126 72.5655 363.126Z" fill="black"/>
<rect x="132" y="240" width="60" height="60" fill="#D9D9D9"/>
<path d="M145.437 318.114C145.437 317.162 145.652 316.308 146.081 315.552C146.51 314.787 147.094 314.189 147.831 313.76C148.578 313.331 149.404 313.116 150.309 313.116C151.373 313.116 152.302 313.373 153.095 313.886C153.888 314.399 154.467 315.127 154.831 316.07H153.305C153.034 315.482 152.642 315.029 152.129 314.712C151.625 314.395 151.018 314.236 150.309 314.236C149.628 314.236 149.016 314.395 148.475 314.712C147.934 315.029 147.509 315.482 147.201 316.07C146.893 316.649 146.739 317.33 146.739 318.114C146.739 318.889 146.893 319.57 147.201 320.158C147.509 320.737 147.934 321.185 148.475 321.502C149.016 321.819 149.628 321.978 150.309 321.978C151.018 321.978 151.625 321.824 152.129 321.516C152.642 321.199 153.034 320.746 153.305 320.158H154.831C154.467 321.091 153.888 321.815 153.095 322.328C152.302 322.832 151.373 323.084 150.309 323.084C149.404 323.084 148.578 322.874 147.831 322.454C147.094 322.025 146.51 321.432 146.081 320.676C145.652 319.92 145.437 319.066 145.437 318.114ZM160.535 315.188C161.114 315.188 161.637 315.314 162.103 315.566C162.57 315.809 162.934 316.177 163.195 316.672C163.466 317.167 163.601 317.769 163.601 318.478V323H162.341V318.66C162.341 317.895 162.15 317.311 161.767 316.91C161.385 316.499 160.862 316.294 160.199 316.294C159.527 316.294 158.991 316.504 158.589 316.924C158.197 317.344 158.001 317.955 158.001 318.758V323H156.727V312.64H158.001V316.42C158.253 316.028 158.599 315.725 159.037 315.51C159.485 315.295 159.985 315.188 160.535 315.188ZM165.206 319.136C165.206 318.352 165.365 317.666 165.682 317.078C166 316.481 166.434 316.019 166.984 315.692C167.544 315.365 168.165 315.202 168.846 315.202C169.518 315.202 170.102 315.347 170.596 315.636C171.091 315.925 171.46 316.289 171.702 316.728V315.328H172.99V323H171.702V321.572C171.45 322.02 171.072 322.393 170.568 322.692C170.074 322.981 169.495 323.126 168.832 323.126C168.151 323.126 167.535 322.958 166.984 322.622C166.434 322.286 166 321.815 165.682 321.208C165.365 320.601 165.206 319.911 165.206 319.136ZM171.702 319.15C171.702 318.571 171.586 318.067 171.352 317.638C171.119 317.209 170.802 316.882 170.4 316.658C170.008 316.425 169.574 316.308 169.098 316.308C168.622 316.308 168.188 316.42 167.796 316.644C167.404 316.868 167.092 317.195 166.858 317.624C166.625 318.053 166.508 318.557 166.508 319.136C166.508 319.724 166.625 320.237 166.858 320.676C167.092 321.105 167.404 321.437 167.796 321.67C168.188 321.894 168.622 322.006 169.098 322.006C169.574 322.006 170.008 321.894 170.4 321.67C170.802 321.437 171.119 321.105 171.352 320.676C171.586 320.237 171.702 319.729 171.702 319.15ZM176.697 316.378V320.9C176.697 321.273 176.777 321.539 176.935 321.698C177.094 321.847 177.369 321.922 177.761 321.922H178.699V323H177.551C176.842 323 176.31 322.837 175.955 322.51C175.601 322.183 175.423 321.647 175.423 320.9V316.378H174.429V315.328H175.423V313.396H176.697V315.328H178.699V316.378H176.697ZM147.79 343L145.466 339.01H143.926V343H142.652V333.242H145.802C146.54 333.242 147.16 333.368 147.664 333.62C148.178 333.872 148.56 334.213 148.812 334.642C149.064 335.071 149.19 335.561 149.19 336.112C149.19 336.784 148.994 337.377 148.602 337.89C148.22 338.403 147.641 338.744 146.866 338.912L149.316 343H147.79ZM143.926 337.988H145.802C146.493 337.988 147.011 337.82 147.356 337.484C147.702 337.139 147.874 336.681 147.874 336.112C147.874 335.533 147.702 335.085 147.356 334.768C147.02 334.451 146.502 334.292 145.802 334.292H143.926V337.988ZM154.516 343.126C153.797 343.126 153.144 342.963 152.556 342.636C151.977 342.309 151.52 341.847 151.184 341.25C150.857 340.643 150.694 339.943 150.694 339.15C150.694 338.366 150.862 337.675 151.198 337.078C151.543 336.471 152.01 336.009 152.598 335.692C153.186 335.365 153.844 335.202 154.572 335.202C155.3 335.202 155.958 335.365 156.546 335.692C157.134 336.009 157.596 336.467 157.932 337.064C158.277 337.661 158.45 338.357 158.45 339.15C158.45 339.943 158.272 340.643 157.918 341.25C157.572 341.847 157.101 342.309 156.504 342.636C155.906 342.963 155.244 343.126 154.516 343.126ZM154.516 342.006C154.973 342.006 155.402 341.899 155.804 341.684C156.205 341.469 156.527 341.147 156.77 340.718C157.022 340.289 157.148 339.766 157.148 339.15C157.148 338.534 157.026 338.011 156.784 337.582C156.541 337.153 156.224 336.835 155.832 336.63C155.44 336.415 155.015 336.308 154.558 336.308C154.091 336.308 153.662 336.415 153.27 336.63C152.887 336.835 152.579 337.153 152.346 337.582C152.112 338.011 151.996 338.534 151.996 339.15C151.996 339.775 152.108 340.303 152.332 340.732C152.565 341.161 152.873 341.483 153.256 341.698C153.638 341.903 154.058 342.006 154.516 342.006ZM163.471 343.126C162.752 343.126 162.099 342.963 161.511 342.636C160.932 342.309 160.475 341.847 160.139 341.25C159.812 340.643 159.649 339.943 159.649 339.15C159.649 338.366 159.817 337.675 160.153 337.078C160.498 336.471 160.965 336.009 161.553 335.692C162.141 335.365 162.799 335.202 163.527 335.202C164.255 335.202 164.913 335.365 165.501 335.692C166.089 336.009 166.551 336.467 166.887 337.064C167.232 337.661 167.405 338.357 167.405 339.15C167.405 339.943 167.228 340.643 166.873 341.25C166.528 341.847 166.056 342.309 165.459 342.636C164.862 342.963 164.199 343.126 163.471 343.126ZM163.471 342.006C163.928 342.006 164.358 341.899 164.759 341.684C165.16 341.469 165.482 341.147 165.725 340.718C165.977 340.289 166.103 339.766 166.103 339.15C166.103 338.534 165.982 338.011 165.739 337.582C165.496 337.153 165.179 336.835 164.787 336.63C164.395 336.415 163.97 336.308 163.513 336.308C163.046 336.308 162.617 336.415 162.225 336.63C161.842 336.835 161.534 337.153 161.301 337.582C161.068 338.011 160.951 338.534 160.951 339.15C160.951 339.775 161.063 340.303 161.287 340.732C161.52 341.161 161.828 341.483 162.211 341.698C162.594 341.903 163.014 342.006 163.471 342.006ZM178.306 335.188C178.903 335.188 179.435 335.314 179.902 335.566C180.369 335.809 180.737 336.177 181.008 336.672C181.279 337.167 181.414 337.769 181.414 338.478V343H180.154V338.66C180.154 337.895 179.963 337.311 179.58 336.91C179.207 336.499 178.698 336.294 178.054 336.294C177.391 336.294 176.864 336.509 176.472 336.938C176.08 337.358 175.884 337.969 175.884 338.772V343H174.624V338.66C174.624 337.895 174.433 337.311 174.05 336.91C173.677 336.499 173.168 336.294 172.524 336.294C171.861 336.294 171.334 336.509 170.942 336.938C170.55 337.358 170.354 337.969 170.354 338.772V343H169.08V335.328H170.354V336.434C170.606 336.033 170.942 335.725 171.362 335.51C171.791 335.295 172.263 335.188 172.776 335.188C173.42 335.188 173.989 335.333 174.484 335.622C174.979 335.911 175.347 336.336 175.59 336.896C175.805 336.355 176.159 335.935 176.654 335.636C177.149 335.337 177.699 335.188 178.306 335.188Z" fill="black"/>
</svg>
